%TF.GenerationSoftware,KiCad,Pcbnew,9.0.7*%
%TF.CreationDate,2026-02-16T00:58:25-05:00*%
%TF.ProjectId,ieee,69656565-2e6b-4696-9361-645f70636258,rev?*%
%TF.SameCoordinates,Original*%
%TF.FileFunction,Legend,Top*%
%TF.FilePolarity,Positive*%
%FSLAX46Y46*%
G04 Gerber Fmt 4.6, Leading zero omitted, Abs format (unit mm)*
G04 Created by KiCad (PCBNEW 9.0.7) date 2026-02-16 00:58:25*
%MOMM*%
%LPD*%
G01*
G04 APERTURE LIST*
%ADD10C,0.150000*%
%ADD11C,0.100000*%
%ADD12C,0.120000*%
%ADD13C,0.152400*%
%ADD14C,0.000000*%
G04 APERTURE END LIST*
D10*
X145843160Y-68545104D02*
X146319350Y-68545104D01*
X145747922Y-68830819D02*
X146081255Y-67830819D01*
X146081255Y-67830819D02*
X146414588Y-68830819D01*
X146652684Y-67830819D02*
X147271731Y-67830819D01*
X147271731Y-67830819D02*
X146938398Y-68211771D01*
X146938398Y-68211771D02*
X147081255Y-68211771D01*
X147081255Y-68211771D02*
X147176493Y-68259390D01*
X147176493Y-68259390D02*
X147224112Y-68307009D01*
X147224112Y-68307009D02*
X147271731Y-68402247D01*
X147271731Y-68402247D02*
X147271731Y-68640342D01*
X147271731Y-68640342D02*
X147224112Y-68735580D01*
X147224112Y-68735580D02*
X147176493Y-68783200D01*
X147176493Y-68783200D02*
X147081255Y-68830819D01*
X147081255Y-68830819D02*
X146795541Y-68830819D01*
X146795541Y-68830819D02*
X146700303Y-68783200D01*
X146700303Y-68783200D02*
X146652684Y-68735580D01*
D11*
X212645714Y-41065704D02*
X213121904Y-41065704D01*
X212550476Y-41351419D02*
X212883809Y-40351419D01*
X212883809Y-40351419D02*
X213217142Y-41351419D01*
X214074285Y-41351419D02*
X213502857Y-41351419D01*
X213788571Y-41351419D02*
X213788571Y-40351419D01*
X213788571Y-40351419D02*
X213693333Y-40494276D01*
X213693333Y-40494276D02*
X213598095Y-40589514D01*
X213598095Y-40589514D02*
X213502857Y-40637133D01*
D10*
X147319904Y-103923180D02*
X147319904Y-103113657D01*
X147319904Y-103113657D02*
X147272285Y-103018419D01*
X147272285Y-103018419D02*
X147224666Y-102970800D01*
X147224666Y-102970800D02*
X147129428Y-102923180D01*
X147129428Y-102923180D02*
X146938952Y-102923180D01*
X146938952Y-102923180D02*
X146843714Y-102970800D01*
X146843714Y-102970800D02*
X146796095Y-103018419D01*
X146796095Y-103018419D02*
X146748476Y-103113657D01*
X146748476Y-103113657D02*
X146748476Y-103923180D01*
X145843714Y-103923180D02*
X146034190Y-103923180D01*
X146034190Y-103923180D02*
X146129428Y-103875561D01*
X146129428Y-103875561D02*
X146177047Y-103827942D01*
X146177047Y-103827942D02*
X146272285Y-103685085D01*
X146272285Y-103685085D02*
X146319904Y-103494609D01*
X146319904Y-103494609D02*
X146319904Y-103113657D01*
X146319904Y-103113657D02*
X146272285Y-103018419D01*
X146272285Y-103018419D02*
X146224666Y-102970800D01*
X146224666Y-102970800D02*
X146129428Y-102923180D01*
X146129428Y-102923180D02*
X145938952Y-102923180D01*
X145938952Y-102923180D02*
X145843714Y-102970800D01*
X145843714Y-102970800D02*
X145796095Y-103018419D01*
X145796095Y-103018419D02*
X145748476Y-103113657D01*
X145748476Y-103113657D02*
X145748476Y-103351752D01*
X145748476Y-103351752D02*
X145796095Y-103446990D01*
X145796095Y-103446990D02*
X145843714Y-103494609D01*
X145843714Y-103494609D02*
X145938952Y-103542228D01*
X145938952Y-103542228D02*
X146129428Y-103542228D01*
X146129428Y-103542228D02*
X146224666Y-103494609D01*
X146224666Y-103494609D02*
X146272285Y-103446990D01*
X146272285Y-103446990D02*
X146319904Y-103351752D01*
X150190199Y-112609980D02*
X150190199Y-112371885D01*
X150428294Y-112467123D02*
X150190199Y-112371885D01*
X150190199Y-112371885D02*
X149952104Y-112467123D01*
X150333056Y-112181409D02*
X150190199Y-112371885D01*
X150190199Y-112371885D02*
X150047342Y-112181409D01*
X153935580Y-109894666D02*
X153983200Y-109942285D01*
X153983200Y-109942285D02*
X154030819Y-110085142D01*
X154030819Y-110085142D02*
X154030819Y-110180380D01*
X154030819Y-110180380D02*
X153983200Y-110323237D01*
X153983200Y-110323237D02*
X153887961Y-110418475D01*
X153887961Y-110418475D02*
X153792723Y-110466094D01*
X153792723Y-110466094D02*
X153602247Y-110513713D01*
X153602247Y-110513713D02*
X153459390Y-110513713D01*
X153459390Y-110513713D02*
X153268914Y-110466094D01*
X153268914Y-110466094D02*
X153173676Y-110418475D01*
X153173676Y-110418475D02*
X153078438Y-110323237D01*
X153078438Y-110323237D02*
X153030819Y-110180380D01*
X153030819Y-110180380D02*
X153030819Y-110085142D01*
X153030819Y-110085142D02*
X153078438Y-109942285D01*
X153078438Y-109942285D02*
X153126057Y-109894666D01*
X153030819Y-109561332D02*
X153030819Y-108942285D01*
X153030819Y-108942285D02*
X153411771Y-109275618D01*
X153411771Y-109275618D02*
X153411771Y-109132761D01*
X153411771Y-109132761D02*
X153459390Y-109037523D01*
X153459390Y-109037523D02*
X153507009Y-108989904D01*
X153507009Y-108989904D02*
X153602247Y-108942285D01*
X153602247Y-108942285D02*
X153840342Y-108942285D01*
X153840342Y-108942285D02*
X153935580Y-108989904D01*
X153935580Y-108989904D02*
X153983200Y-109037523D01*
X153983200Y-109037523D02*
X154030819Y-109132761D01*
X154030819Y-109132761D02*
X154030819Y-109418475D01*
X154030819Y-109418475D02*
X153983200Y-109513713D01*
X153983200Y-109513713D02*
X153935580Y-109561332D01*
X214338819Y-54173333D02*
X215053104Y-54173333D01*
X215053104Y-54173333D02*
X215195961Y-54220952D01*
X215195961Y-54220952D02*
X215291200Y-54316190D01*
X215291200Y-54316190D02*
X215338819Y-54459047D01*
X215338819Y-54459047D02*
X215338819Y-54554285D01*
X215338819Y-53697142D02*
X214338819Y-53697142D01*
X214338819Y-53697142D02*
X214338819Y-53316190D01*
X214338819Y-53316190D02*
X214386438Y-53220952D01*
X214386438Y-53220952D02*
X214434057Y-53173333D01*
X214434057Y-53173333D02*
X214529295Y-53125714D01*
X214529295Y-53125714D02*
X214672152Y-53125714D01*
X214672152Y-53125714D02*
X214767390Y-53173333D01*
X214767390Y-53173333D02*
X214815009Y-53220952D01*
X214815009Y-53220952D02*
X214862628Y-53316190D01*
X214862628Y-53316190D02*
X214862628Y-53697142D01*
X214338819Y-52792380D02*
X214338819Y-52173333D01*
X214338819Y-52173333D02*
X214719771Y-52506666D01*
X214719771Y-52506666D02*
X214719771Y-52363809D01*
X214719771Y-52363809D02*
X214767390Y-52268571D01*
X214767390Y-52268571D02*
X214815009Y-52220952D01*
X214815009Y-52220952D02*
X214910247Y-52173333D01*
X214910247Y-52173333D02*
X215148342Y-52173333D01*
X215148342Y-52173333D02*
X215243580Y-52220952D01*
X215243580Y-52220952D02*
X215291200Y-52268571D01*
X215291200Y-52268571D02*
X215338819Y-52363809D01*
X215338819Y-52363809D02*
X215338819Y-52649523D01*
X215338819Y-52649523D02*
X215291200Y-52744761D01*
X215291200Y-52744761D02*
X215243580Y-52792380D01*
X134168819Y-38303104D02*
X134978342Y-38303104D01*
X134978342Y-38303104D02*
X135073580Y-38255485D01*
X135073580Y-38255485D02*
X135121200Y-38207866D01*
X135121200Y-38207866D02*
X135168819Y-38112628D01*
X135168819Y-38112628D02*
X135168819Y-37922152D01*
X135168819Y-37922152D02*
X135121200Y-37826914D01*
X135121200Y-37826914D02*
X135073580Y-37779295D01*
X135073580Y-37779295D02*
X134978342Y-37731676D01*
X134978342Y-37731676D02*
X134168819Y-37731676D01*
X134168819Y-36779295D02*
X134168819Y-37255485D01*
X134168819Y-37255485D02*
X134645009Y-37303104D01*
X134645009Y-37303104D02*
X134597390Y-37255485D01*
X134597390Y-37255485D02*
X134549771Y-37160247D01*
X134549771Y-37160247D02*
X134549771Y-36922152D01*
X134549771Y-36922152D02*
X134597390Y-36826914D01*
X134597390Y-36826914D02*
X134645009Y-36779295D01*
X134645009Y-36779295D02*
X134740247Y-36731676D01*
X134740247Y-36731676D02*
X134978342Y-36731676D01*
X134978342Y-36731676D02*
X135073580Y-36779295D01*
X135073580Y-36779295D02*
X135121200Y-36826914D01*
X135121200Y-36826914D02*
X135168819Y-36922152D01*
X135168819Y-36922152D02*
X135168819Y-37160247D01*
X135168819Y-37160247D02*
X135121200Y-37255485D01*
X135121200Y-37255485D02*
X135073580Y-37303104D01*
X141329580Y-111164666D02*
X141377200Y-111212285D01*
X141377200Y-111212285D02*
X141424819Y-111355142D01*
X141424819Y-111355142D02*
X141424819Y-111450380D01*
X141424819Y-111450380D02*
X141377200Y-111593237D01*
X141377200Y-111593237D02*
X141281961Y-111688475D01*
X141281961Y-111688475D02*
X141186723Y-111736094D01*
X141186723Y-111736094D02*
X140996247Y-111783713D01*
X140996247Y-111783713D02*
X140853390Y-111783713D01*
X140853390Y-111783713D02*
X140662914Y-111736094D01*
X140662914Y-111736094D02*
X140567676Y-111688475D01*
X140567676Y-111688475D02*
X140472438Y-111593237D01*
X140472438Y-111593237D02*
X140424819Y-111450380D01*
X140424819Y-111450380D02*
X140424819Y-111355142D01*
X140424819Y-111355142D02*
X140472438Y-111212285D01*
X140472438Y-111212285D02*
X140520057Y-111164666D01*
X141424819Y-110212285D02*
X141424819Y-110783713D01*
X141424819Y-110497999D02*
X140424819Y-110497999D01*
X140424819Y-110497999D02*
X140567676Y-110593237D01*
X140567676Y-110593237D02*
X140662914Y-110688475D01*
X140662914Y-110688475D02*
X140710533Y-110783713D01*
X93218095Y-38554819D02*
X93218095Y-37554819D01*
X93218095Y-38031009D02*
X93789523Y-38031009D01*
X93789523Y-38554819D02*
X93789523Y-37554819D01*
X94218095Y-37650057D02*
X94265714Y-37602438D01*
X94265714Y-37602438D02*
X94360952Y-37554819D01*
X94360952Y-37554819D02*
X94599047Y-37554819D01*
X94599047Y-37554819D02*
X94694285Y-37602438D01*
X94694285Y-37602438D02*
X94741904Y-37650057D01*
X94741904Y-37650057D02*
X94789523Y-37745295D01*
X94789523Y-37745295D02*
X94789523Y-37840533D01*
X94789523Y-37840533D02*
X94741904Y-37983390D01*
X94741904Y-37983390D02*
X94170476Y-38554819D01*
X94170476Y-38554819D02*
X94789523Y-38554819D01*
X172466095Y-49038819D02*
X172466095Y-49848342D01*
X172466095Y-49848342D02*
X172513714Y-49943580D01*
X172513714Y-49943580D02*
X172561333Y-49991200D01*
X172561333Y-49991200D02*
X172656571Y-50038819D01*
X172656571Y-50038819D02*
X172847047Y-50038819D01*
X172847047Y-50038819D02*
X172942285Y-49991200D01*
X172942285Y-49991200D02*
X172989904Y-49943580D01*
X172989904Y-49943580D02*
X173037523Y-49848342D01*
X173037523Y-49848342D02*
X173037523Y-49038819D01*
X173466095Y-49134057D02*
X173513714Y-49086438D01*
X173513714Y-49086438D02*
X173608952Y-49038819D01*
X173608952Y-49038819D02*
X173847047Y-49038819D01*
X173847047Y-49038819D02*
X173942285Y-49086438D01*
X173942285Y-49086438D02*
X173989904Y-49134057D01*
X173989904Y-49134057D02*
X174037523Y-49229295D01*
X174037523Y-49229295D02*
X174037523Y-49324533D01*
X174037523Y-49324533D02*
X173989904Y-49467390D01*
X173989904Y-49467390D02*
X173418476Y-50038819D01*
X173418476Y-50038819D02*
X174037523Y-50038819D01*
X163681580Y-50966666D02*
X163729200Y-51014285D01*
X163729200Y-51014285D02*
X163776819Y-51157142D01*
X163776819Y-51157142D02*
X163776819Y-51252380D01*
X163776819Y-51252380D02*
X163729200Y-51395237D01*
X163729200Y-51395237D02*
X163633961Y-51490475D01*
X163633961Y-51490475D02*
X163538723Y-51538094D01*
X163538723Y-51538094D02*
X163348247Y-51585713D01*
X163348247Y-51585713D02*
X163205390Y-51585713D01*
X163205390Y-51585713D02*
X163014914Y-51538094D01*
X163014914Y-51538094D02*
X162919676Y-51490475D01*
X162919676Y-51490475D02*
X162824438Y-51395237D01*
X162824438Y-51395237D02*
X162776819Y-51252380D01*
X162776819Y-51252380D02*
X162776819Y-51157142D01*
X162776819Y-51157142D02*
X162824438Y-51014285D01*
X162824438Y-51014285D02*
X162872057Y-50966666D01*
X163110152Y-50109523D02*
X163776819Y-50109523D01*
X162729200Y-50347618D02*
X163443485Y-50585713D01*
X163443485Y-50585713D02*
X163443485Y-49966666D01*
X88639116Y-137454819D02*
X88639116Y-136454819D01*
X88639116Y-136454819D02*
X88972449Y-137169104D01*
X88972449Y-137169104D02*
X89305782Y-136454819D01*
X89305782Y-136454819D02*
X89305782Y-137454819D01*
X90305782Y-137454819D02*
X89734354Y-137454819D01*
X90020068Y-137454819D02*
X90020068Y-136454819D01*
X90020068Y-136454819D02*
X89924830Y-136597676D01*
X89924830Y-136597676D02*
X89829592Y-136692914D01*
X89829592Y-136692914D02*
X89734354Y-136740533D01*
X177038095Y-59304819D02*
X177038095Y-60114342D01*
X177038095Y-60114342D02*
X177085714Y-60209580D01*
X177085714Y-60209580D02*
X177133333Y-60257200D01*
X177133333Y-60257200D02*
X177228571Y-60304819D01*
X177228571Y-60304819D02*
X177419047Y-60304819D01*
X177419047Y-60304819D02*
X177514285Y-60257200D01*
X177514285Y-60257200D02*
X177561904Y-60209580D01*
X177561904Y-60209580D02*
X177609523Y-60114342D01*
X177609523Y-60114342D02*
X177609523Y-59304819D01*
X178514285Y-59638152D02*
X178514285Y-60304819D01*
X178276190Y-59257200D02*
X178038095Y-59971485D01*
X178038095Y-59971485D02*
X178657142Y-59971485D01*
X197351200Y-145541904D02*
X197398819Y-145399047D01*
X197398819Y-145399047D02*
X197398819Y-145160952D01*
X197398819Y-145160952D02*
X197351200Y-145065714D01*
X197351200Y-145065714D02*
X197303580Y-145018095D01*
X197303580Y-145018095D02*
X197208342Y-144970476D01*
X197208342Y-144970476D02*
X197113104Y-144970476D01*
X197113104Y-144970476D02*
X197017866Y-145018095D01*
X197017866Y-145018095D02*
X196970247Y-145065714D01*
X196970247Y-145065714D02*
X196922628Y-145160952D01*
X196922628Y-145160952D02*
X196875009Y-145351428D01*
X196875009Y-145351428D02*
X196827390Y-145446666D01*
X196827390Y-145446666D02*
X196779771Y-145494285D01*
X196779771Y-145494285D02*
X196684533Y-145541904D01*
X196684533Y-145541904D02*
X196589295Y-145541904D01*
X196589295Y-145541904D02*
X196494057Y-145494285D01*
X196494057Y-145494285D02*
X196446438Y-145446666D01*
X196446438Y-145446666D02*
X196398819Y-145351428D01*
X196398819Y-145351428D02*
X196398819Y-145113333D01*
X196398819Y-145113333D02*
X196446438Y-144970476D01*
X197398819Y-144018095D02*
X197398819Y-144589523D01*
X197398819Y-144303809D02*
X196398819Y-144303809D01*
X196398819Y-144303809D02*
X196541676Y-144399047D01*
X196541676Y-144399047D02*
X196636914Y-144494285D01*
X196636914Y-144494285D02*
X196684533Y-144589523D01*
X179157333Y-49889580D02*
X179109714Y-49937200D01*
X179109714Y-49937200D02*
X178966857Y-49984819D01*
X178966857Y-49984819D02*
X178871619Y-49984819D01*
X178871619Y-49984819D02*
X178728762Y-49937200D01*
X178728762Y-49937200D02*
X178633524Y-49841961D01*
X178633524Y-49841961D02*
X178585905Y-49746723D01*
X178585905Y-49746723D02*
X178538286Y-49556247D01*
X178538286Y-49556247D02*
X178538286Y-49413390D01*
X178538286Y-49413390D02*
X178585905Y-49222914D01*
X178585905Y-49222914D02*
X178633524Y-49127676D01*
X178633524Y-49127676D02*
X178728762Y-49032438D01*
X178728762Y-49032438D02*
X178871619Y-48984819D01*
X178871619Y-48984819D02*
X178966857Y-48984819D01*
X178966857Y-48984819D02*
X179109714Y-49032438D01*
X179109714Y-49032438D02*
X179157333Y-49080057D01*
X179490667Y-48984819D02*
X180157333Y-48984819D01*
X180157333Y-48984819D02*
X179728762Y-49984819D01*
X210742819Y-128125733D02*
X211457104Y-128125733D01*
X211457104Y-128125733D02*
X211599961Y-128173352D01*
X211599961Y-128173352D02*
X211695200Y-128268590D01*
X211695200Y-128268590D02*
X211742819Y-128411447D01*
X211742819Y-128411447D02*
X211742819Y-128506685D01*
X211742819Y-127125733D02*
X211742819Y-127697161D01*
X211742819Y-127411447D02*
X210742819Y-127411447D01*
X210742819Y-127411447D02*
X210885676Y-127506685D01*
X210885676Y-127506685D02*
X210980914Y-127601923D01*
X210980914Y-127601923D02*
X211028533Y-127697161D01*
X88639116Y-86316152D02*
X88639116Y-85316152D01*
X88639116Y-85316152D02*
X88972449Y-86030437D01*
X88972449Y-86030437D02*
X89305782Y-85316152D01*
X89305782Y-85316152D02*
X89305782Y-86316152D01*
X89686735Y-85316152D02*
X90305782Y-85316152D01*
X90305782Y-85316152D02*
X89972449Y-85697104D01*
X89972449Y-85697104D02*
X90115306Y-85697104D01*
X90115306Y-85697104D02*
X90210544Y-85744723D01*
X90210544Y-85744723D02*
X90258163Y-85792342D01*
X90258163Y-85792342D02*
X90305782Y-85887580D01*
X90305782Y-85887580D02*
X90305782Y-86125675D01*
X90305782Y-86125675D02*
X90258163Y-86220913D01*
X90258163Y-86220913D02*
X90210544Y-86268533D01*
X90210544Y-86268533D02*
X90115306Y-86316152D01*
X90115306Y-86316152D02*
X89829592Y-86316152D01*
X89829592Y-86316152D02*
X89734354Y-86268533D01*
X89734354Y-86268533D02*
X89686735Y-86220913D01*
D11*
X154298059Y-130524094D02*
X155107582Y-130524094D01*
X155107582Y-130524094D02*
X155202820Y-130476475D01*
X155202820Y-130476475D02*
X155250440Y-130428856D01*
X155250440Y-130428856D02*
X155298059Y-130333618D01*
X155298059Y-130333618D02*
X155298059Y-130143142D01*
X155298059Y-130143142D02*
X155250440Y-130047904D01*
X155250440Y-130047904D02*
X155202820Y-130000285D01*
X155202820Y-130000285D02*
X155107582Y-129952666D01*
X155107582Y-129952666D02*
X154298059Y-129952666D01*
X155298059Y-128952666D02*
X155298059Y-129524094D01*
X155298059Y-129238380D02*
X154298059Y-129238380D01*
X154298059Y-129238380D02*
X154440916Y-129333618D01*
X154440916Y-129333618D02*
X154536154Y-129428856D01*
X154536154Y-129428856D02*
X154583773Y-129524094D01*
X154298059Y-128619332D02*
X154298059Y-128000285D01*
X154298059Y-128000285D02*
X154679011Y-128333618D01*
X154679011Y-128333618D02*
X154679011Y-128190761D01*
X154679011Y-128190761D02*
X154726630Y-128095523D01*
X154726630Y-128095523D02*
X154774249Y-128047904D01*
X154774249Y-128047904D02*
X154869487Y-128000285D01*
X154869487Y-128000285D02*
X155107582Y-128000285D01*
X155107582Y-128000285D02*
X155202820Y-128047904D01*
X155202820Y-128047904D02*
X155250440Y-128095523D01*
X155250440Y-128095523D02*
X155298059Y-128190761D01*
X155298059Y-128190761D02*
X155298059Y-128476475D01*
X155298059Y-128476475D02*
X155250440Y-128571713D01*
X155250440Y-128571713D02*
X155202820Y-128619332D01*
D10*
X162428819Y-44529333D02*
X163143104Y-44529333D01*
X163143104Y-44529333D02*
X163285961Y-44576952D01*
X163285961Y-44576952D02*
X163381200Y-44672190D01*
X163381200Y-44672190D02*
X163428819Y-44815047D01*
X163428819Y-44815047D02*
X163428819Y-44910285D01*
X162428819Y-44148380D02*
X162428819Y-43529333D01*
X162428819Y-43529333D02*
X162809771Y-43862666D01*
X162809771Y-43862666D02*
X162809771Y-43719809D01*
X162809771Y-43719809D02*
X162857390Y-43624571D01*
X162857390Y-43624571D02*
X162905009Y-43576952D01*
X162905009Y-43576952D02*
X163000247Y-43529333D01*
X163000247Y-43529333D02*
X163238342Y-43529333D01*
X163238342Y-43529333D02*
X163333580Y-43576952D01*
X163333580Y-43576952D02*
X163381200Y-43624571D01*
X163381200Y-43624571D02*
X163428819Y-43719809D01*
X163428819Y-43719809D02*
X163428819Y-44005523D01*
X163428819Y-44005523D02*
X163381200Y-44100761D01*
X163381200Y-44100761D02*
X163333580Y-44148380D01*
X147153333Y-112627580D02*
X147105714Y-112675200D01*
X147105714Y-112675200D02*
X146962857Y-112722819D01*
X146962857Y-112722819D02*
X146867619Y-112722819D01*
X146867619Y-112722819D02*
X146724762Y-112675200D01*
X146724762Y-112675200D02*
X146629524Y-112579961D01*
X146629524Y-112579961D02*
X146581905Y-112484723D01*
X146581905Y-112484723D02*
X146534286Y-112294247D01*
X146534286Y-112294247D02*
X146534286Y-112151390D01*
X146534286Y-112151390D02*
X146581905Y-111960914D01*
X146581905Y-111960914D02*
X146629524Y-111865676D01*
X146629524Y-111865676D02*
X146724762Y-111770438D01*
X146724762Y-111770438D02*
X146867619Y-111722819D01*
X146867619Y-111722819D02*
X146962857Y-111722819D01*
X146962857Y-111722819D02*
X147105714Y-111770438D01*
X147105714Y-111770438D02*
X147153333Y-111818057D01*
X147534286Y-111818057D02*
X147581905Y-111770438D01*
X147581905Y-111770438D02*
X147677143Y-111722819D01*
X147677143Y-111722819D02*
X147915238Y-111722819D01*
X147915238Y-111722819D02*
X148010476Y-111770438D01*
X148010476Y-111770438D02*
X148058095Y-111818057D01*
X148058095Y-111818057D02*
X148105714Y-111913295D01*
X148105714Y-111913295D02*
X148105714Y-112008533D01*
X148105714Y-112008533D02*
X148058095Y-112151390D01*
X148058095Y-112151390D02*
X147486667Y-112722819D01*
X147486667Y-112722819D02*
X148105714Y-112722819D01*
X217373295Y-64067200D02*
X217516152Y-64114819D01*
X217516152Y-64114819D02*
X217754247Y-64114819D01*
X217754247Y-64114819D02*
X217849485Y-64067200D01*
X217849485Y-64067200D02*
X217897104Y-64019580D01*
X217897104Y-64019580D02*
X217944723Y-63924342D01*
X217944723Y-63924342D02*
X217944723Y-63829104D01*
X217944723Y-63829104D02*
X217897104Y-63733866D01*
X217897104Y-63733866D02*
X217849485Y-63686247D01*
X217849485Y-63686247D02*
X217754247Y-63638628D01*
X217754247Y-63638628D02*
X217563771Y-63591009D01*
X217563771Y-63591009D02*
X217468533Y-63543390D01*
X217468533Y-63543390D02*
X217420914Y-63495771D01*
X217420914Y-63495771D02*
X217373295Y-63400533D01*
X217373295Y-63400533D02*
X217373295Y-63305295D01*
X217373295Y-63305295D02*
X217420914Y-63210057D01*
X217420914Y-63210057D02*
X217468533Y-63162438D01*
X217468533Y-63162438D02*
X217563771Y-63114819D01*
X217563771Y-63114819D02*
X217801866Y-63114819D01*
X217801866Y-63114819D02*
X217944723Y-63162438D01*
X218278057Y-63114819D02*
X218897104Y-63114819D01*
X218897104Y-63114819D02*
X218563771Y-63495771D01*
X218563771Y-63495771D02*
X218706628Y-63495771D01*
X218706628Y-63495771D02*
X218801866Y-63543390D01*
X218801866Y-63543390D02*
X218849485Y-63591009D01*
X218849485Y-63591009D02*
X218897104Y-63686247D01*
X218897104Y-63686247D02*
X218897104Y-63924342D01*
X218897104Y-63924342D02*
X218849485Y-64019580D01*
X218849485Y-64019580D02*
X218801866Y-64067200D01*
X218801866Y-64067200D02*
X218706628Y-64114819D01*
X218706628Y-64114819D02*
X218420914Y-64114819D01*
X218420914Y-64114819D02*
X218325676Y-64067200D01*
X218325676Y-64067200D02*
X218278057Y-64019580D01*
X88639116Y-111885486D02*
X88639116Y-110885486D01*
X88639116Y-110885486D02*
X88972449Y-111599771D01*
X88972449Y-111599771D02*
X89305782Y-110885486D01*
X89305782Y-110885486D02*
X89305782Y-111885486D01*
X89734354Y-110980724D02*
X89781973Y-110933105D01*
X89781973Y-110933105D02*
X89877211Y-110885486D01*
X89877211Y-110885486D02*
X90115306Y-110885486D01*
X90115306Y-110885486D02*
X90210544Y-110933105D01*
X90210544Y-110933105D02*
X90258163Y-110980724D01*
X90258163Y-110980724D02*
X90305782Y-111075962D01*
X90305782Y-111075962D02*
X90305782Y-111171200D01*
X90305782Y-111171200D02*
X90258163Y-111314057D01*
X90258163Y-111314057D02*
X89686735Y-111885486D01*
X89686735Y-111885486D02*
X90305782Y-111885486D01*
X212598095Y-142694819D02*
X212598095Y-141694819D01*
X212598095Y-142171009D02*
X213169523Y-142171009D01*
X213169523Y-142694819D02*
X213169523Y-141694819D01*
X214169523Y-142694819D02*
X213598095Y-142694819D01*
X213883809Y-142694819D02*
X213883809Y-141694819D01*
X213883809Y-141694819D02*
X213788571Y-141837676D01*
X213788571Y-141837676D02*
X213693333Y-141932914D01*
X213693333Y-141932914D02*
X213598095Y-141980533D01*
D11*
X107006545Y-35250419D02*
X107006545Y-36059942D01*
X107006545Y-36059942D02*
X107054164Y-36155180D01*
X107054164Y-36155180D02*
X107101783Y-36202800D01*
X107101783Y-36202800D02*
X107197021Y-36250419D01*
X107197021Y-36250419D02*
X107387497Y-36250419D01*
X107387497Y-36250419D02*
X107482735Y-36202800D01*
X107482735Y-36202800D02*
X107530354Y-36155180D01*
X107530354Y-36155180D02*
X107577973Y-36059942D01*
X107577973Y-36059942D02*
X107577973Y-35250419D01*
X108577973Y-36250419D02*
X108006545Y-36250419D01*
X108292259Y-36250419D02*
X108292259Y-35250419D01*
X108292259Y-35250419D02*
X108197021Y-35393276D01*
X108197021Y-35393276D02*
X108101783Y-35488514D01*
X108101783Y-35488514D02*
X108006545Y-35536133D01*
X109197021Y-35250419D02*
X109292259Y-35250419D01*
X109292259Y-35250419D02*
X109387497Y-35298038D01*
X109387497Y-35298038D02*
X109435116Y-35345657D01*
X109435116Y-35345657D02*
X109482735Y-35440895D01*
X109482735Y-35440895D02*
X109530354Y-35631371D01*
X109530354Y-35631371D02*
X109530354Y-35869466D01*
X109530354Y-35869466D02*
X109482735Y-36059942D01*
X109482735Y-36059942D02*
X109435116Y-36155180D01*
X109435116Y-36155180D02*
X109387497Y-36202800D01*
X109387497Y-36202800D02*
X109292259Y-36250419D01*
X109292259Y-36250419D02*
X109197021Y-36250419D01*
X109197021Y-36250419D02*
X109101783Y-36202800D01*
X109101783Y-36202800D02*
X109054164Y-36155180D01*
X109054164Y-36155180D02*
X109006545Y-36059942D01*
X109006545Y-36059942D02*
X108958926Y-35869466D01*
X108958926Y-35869466D02*
X108958926Y-35631371D01*
X108958926Y-35631371D02*
X109006545Y-35440895D01*
X109006545Y-35440895D02*
X109054164Y-35345657D01*
X109054164Y-35345657D02*
X109101783Y-35298038D01*
X109101783Y-35298038D02*
X109197021Y-35250419D01*
X206724094Y-84019580D02*
X206724094Y-83210057D01*
X206724094Y-83210057D02*
X206676475Y-83114819D01*
X206676475Y-83114819D02*
X206628856Y-83067200D01*
X206628856Y-83067200D02*
X206533618Y-83019580D01*
X206533618Y-83019580D02*
X206343142Y-83019580D01*
X206343142Y-83019580D02*
X206247904Y-83067200D01*
X206247904Y-83067200D02*
X206200285Y-83114819D01*
X206200285Y-83114819D02*
X206152666Y-83210057D01*
X206152666Y-83210057D02*
X206152666Y-84019580D01*
X205152666Y-83019580D02*
X205724094Y-83019580D01*
X205438380Y-83019580D02*
X205438380Y-84019580D01*
X205438380Y-84019580D02*
X205533618Y-83876723D01*
X205533618Y-83876723D02*
X205628856Y-83781485D01*
X205628856Y-83781485D02*
X205724094Y-83733866D01*
X204771713Y-83924342D02*
X204724094Y-83971961D01*
X204724094Y-83971961D02*
X204628856Y-84019580D01*
X204628856Y-84019580D02*
X204390761Y-84019580D01*
X204390761Y-84019580D02*
X204295523Y-83971961D01*
X204295523Y-83971961D02*
X204247904Y-83924342D01*
X204247904Y-83924342D02*
X204200285Y-83829104D01*
X204200285Y-83829104D02*
X204200285Y-83733866D01*
X204200285Y-83733866D02*
X204247904Y-83591009D01*
X204247904Y-83591009D02*
X204819332Y-83019580D01*
X204819332Y-83019580D02*
X204200285Y-83019580D01*
D10*
X209258819Y-54173333D02*
X209973104Y-54173333D01*
X209973104Y-54173333D02*
X210115961Y-54220952D01*
X210115961Y-54220952D02*
X210211200Y-54316190D01*
X210211200Y-54316190D02*
X210258819Y-54459047D01*
X210258819Y-54459047D02*
X210258819Y-54554285D01*
X210258819Y-53697142D02*
X209258819Y-53697142D01*
X209258819Y-53697142D02*
X209258819Y-53316190D01*
X209258819Y-53316190D02*
X209306438Y-53220952D01*
X209306438Y-53220952D02*
X209354057Y-53173333D01*
X209354057Y-53173333D02*
X209449295Y-53125714D01*
X209449295Y-53125714D02*
X209592152Y-53125714D01*
X209592152Y-53125714D02*
X209687390Y-53173333D01*
X209687390Y-53173333D02*
X209735009Y-53220952D01*
X209735009Y-53220952D02*
X209782628Y-53316190D01*
X209782628Y-53316190D02*
X209782628Y-53697142D01*
X209354057Y-52744761D02*
X209306438Y-52697142D01*
X209306438Y-52697142D02*
X209258819Y-52601904D01*
X209258819Y-52601904D02*
X209258819Y-52363809D01*
X209258819Y-52363809D02*
X209306438Y-52268571D01*
X209306438Y-52268571D02*
X209354057Y-52220952D01*
X209354057Y-52220952D02*
X209449295Y-52173333D01*
X209449295Y-52173333D02*
X209544533Y-52173333D01*
X209544533Y-52173333D02*
X209687390Y-52220952D01*
X209687390Y-52220952D02*
X210258819Y-52792380D01*
X210258819Y-52792380D02*
X210258819Y-52173333D01*
X212565200Y-115963532D02*
X212612819Y-115820675D01*
X212612819Y-115820675D02*
X212612819Y-115582580D01*
X212612819Y-115582580D02*
X212565200Y-115487342D01*
X212565200Y-115487342D02*
X212517580Y-115439723D01*
X212517580Y-115439723D02*
X212422342Y-115392104D01*
X212422342Y-115392104D02*
X212327104Y-115392104D01*
X212327104Y-115392104D02*
X212231866Y-115439723D01*
X212231866Y-115439723D02*
X212184247Y-115487342D01*
X212184247Y-115487342D02*
X212136628Y-115582580D01*
X212136628Y-115582580D02*
X212089009Y-115773056D01*
X212089009Y-115773056D02*
X212041390Y-115868294D01*
X212041390Y-115868294D02*
X211993771Y-115915913D01*
X211993771Y-115915913D02*
X211898533Y-115963532D01*
X211898533Y-115963532D02*
X211803295Y-115963532D01*
X211803295Y-115963532D02*
X211708057Y-115915913D01*
X211708057Y-115915913D02*
X211660438Y-115868294D01*
X211660438Y-115868294D02*
X211612819Y-115773056D01*
X211612819Y-115773056D02*
X211612819Y-115534961D01*
X211612819Y-115534961D02*
X211660438Y-115392104D01*
X211612819Y-115058770D02*
X212612819Y-114820675D01*
X212612819Y-114820675D02*
X211898533Y-114630199D01*
X211898533Y-114630199D02*
X212612819Y-114439723D01*
X212612819Y-114439723D02*
X211612819Y-114201628D01*
X212612819Y-113296866D02*
X212612819Y-113868294D01*
X212612819Y-113582580D02*
X211612819Y-113582580D01*
X211612819Y-113582580D02*
X211755676Y-113677818D01*
X211755676Y-113677818D02*
X211850914Y-113773056D01*
X211850914Y-113773056D02*
X211898533Y-113868294D01*
D11*
X206724094Y-101966580D02*
X206724094Y-101157057D01*
X206724094Y-101157057D02*
X206676475Y-101061819D01*
X206676475Y-101061819D02*
X206628856Y-101014200D01*
X206628856Y-101014200D02*
X206533618Y-100966580D01*
X206533618Y-100966580D02*
X206343142Y-100966580D01*
X206343142Y-100966580D02*
X206247904Y-101014200D01*
X206247904Y-101014200D02*
X206200285Y-101061819D01*
X206200285Y-101061819D02*
X206152666Y-101157057D01*
X206152666Y-101157057D02*
X206152666Y-101966580D01*
X205152666Y-100966580D02*
X205724094Y-100966580D01*
X205438380Y-100966580D02*
X205438380Y-101966580D01*
X205438380Y-101966580D02*
X205533618Y-101823723D01*
X205533618Y-101823723D02*
X205628856Y-101728485D01*
X205628856Y-101728485D02*
X205724094Y-101680866D01*
X204200285Y-100966580D02*
X204771713Y-100966580D01*
X204485999Y-100966580D02*
X204485999Y-101966580D01*
X204485999Y-101966580D02*
X204581237Y-101823723D01*
X204581237Y-101823723D02*
X204676475Y-101728485D01*
X204676475Y-101728485D02*
X204771713Y-101680866D01*
X107482735Y-92569752D02*
X107482735Y-93379275D01*
X107482735Y-93379275D02*
X107530354Y-93474513D01*
X107530354Y-93474513D02*
X107577973Y-93522133D01*
X107577973Y-93522133D02*
X107673211Y-93569752D01*
X107673211Y-93569752D02*
X107863687Y-93569752D01*
X107863687Y-93569752D02*
X107958925Y-93522133D01*
X107958925Y-93522133D02*
X108006544Y-93474513D01*
X108006544Y-93474513D02*
X108054163Y-93379275D01*
X108054163Y-93379275D02*
X108054163Y-92569752D01*
X108673211Y-92998323D02*
X108577973Y-92950704D01*
X108577973Y-92950704D02*
X108530354Y-92903085D01*
X108530354Y-92903085D02*
X108482735Y-92807847D01*
X108482735Y-92807847D02*
X108482735Y-92760228D01*
X108482735Y-92760228D02*
X108530354Y-92664990D01*
X108530354Y-92664990D02*
X108577973Y-92617371D01*
X108577973Y-92617371D02*
X108673211Y-92569752D01*
X108673211Y-92569752D02*
X108863687Y-92569752D01*
X108863687Y-92569752D02*
X108958925Y-92617371D01*
X108958925Y-92617371D02*
X109006544Y-92664990D01*
X109006544Y-92664990D02*
X109054163Y-92760228D01*
X109054163Y-92760228D02*
X109054163Y-92807847D01*
X109054163Y-92807847D02*
X109006544Y-92903085D01*
X109006544Y-92903085D02*
X108958925Y-92950704D01*
X108958925Y-92950704D02*
X108863687Y-92998323D01*
X108863687Y-92998323D02*
X108673211Y-92998323D01*
X108673211Y-92998323D02*
X108577973Y-93045942D01*
X108577973Y-93045942D02*
X108530354Y-93093561D01*
X108530354Y-93093561D02*
X108482735Y-93188799D01*
X108482735Y-93188799D02*
X108482735Y-93379275D01*
X108482735Y-93379275D02*
X108530354Y-93474513D01*
X108530354Y-93474513D02*
X108577973Y-93522133D01*
X108577973Y-93522133D02*
X108673211Y-93569752D01*
X108673211Y-93569752D02*
X108863687Y-93569752D01*
X108863687Y-93569752D02*
X108958925Y-93522133D01*
X108958925Y-93522133D02*
X109006544Y-93474513D01*
X109006544Y-93474513D02*
X109054163Y-93379275D01*
X109054163Y-93379275D02*
X109054163Y-93188799D01*
X109054163Y-93188799D02*
X109006544Y-93093561D01*
X109006544Y-93093561D02*
X108958925Y-93045942D01*
X108958925Y-93045942D02*
X108863687Y-92998323D01*
D10*
X159940666Y-41270819D02*
X159940666Y-41985104D01*
X159940666Y-41985104D02*
X159893047Y-42127961D01*
X159893047Y-42127961D02*
X159797809Y-42223200D01*
X159797809Y-42223200D02*
X159654952Y-42270819D01*
X159654952Y-42270819D02*
X159559714Y-42270819D01*
X160845428Y-41270819D02*
X160654952Y-41270819D01*
X160654952Y-41270819D02*
X160559714Y-41318438D01*
X160559714Y-41318438D02*
X160512095Y-41366057D01*
X160512095Y-41366057D02*
X160416857Y-41508914D01*
X160416857Y-41508914D02*
X160369238Y-41699390D01*
X160369238Y-41699390D02*
X160369238Y-42080342D01*
X160369238Y-42080342D02*
X160416857Y-42175580D01*
X160416857Y-42175580D02*
X160464476Y-42223200D01*
X160464476Y-42223200D02*
X160559714Y-42270819D01*
X160559714Y-42270819D02*
X160750190Y-42270819D01*
X160750190Y-42270819D02*
X160845428Y-42223200D01*
X160845428Y-42223200D02*
X160893047Y-42175580D01*
X160893047Y-42175580D02*
X160940666Y-42080342D01*
X160940666Y-42080342D02*
X160940666Y-41842247D01*
X160940666Y-41842247D02*
X160893047Y-41747009D01*
X160893047Y-41747009D02*
X160845428Y-41699390D01*
X160845428Y-41699390D02*
X160750190Y-41651771D01*
X160750190Y-41651771D02*
X160559714Y-41651771D01*
X160559714Y-41651771D02*
X160464476Y-41699390D01*
X160464476Y-41699390D02*
X160416857Y-41747009D01*
X160416857Y-41747009D02*
X160369238Y-41842247D01*
X129373333Y-42015580D02*
X129325714Y-42063200D01*
X129325714Y-42063200D02*
X129182857Y-42110819D01*
X129182857Y-42110819D02*
X129087619Y-42110819D01*
X129087619Y-42110819D02*
X128944762Y-42063200D01*
X128944762Y-42063200D02*
X128849524Y-41967961D01*
X128849524Y-41967961D02*
X128801905Y-41872723D01*
X128801905Y-41872723D02*
X128754286Y-41682247D01*
X128754286Y-41682247D02*
X128754286Y-41539390D01*
X128754286Y-41539390D02*
X128801905Y-41348914D01*
X128801905Y-41348914D02*
X128849524Y-41253676D01*
X128849524Y-41253676D02*
X128944762Y-41158438D01*
X128944762Y-41158438D02*
X129087619Y-41110819D01*
X129087619Y-41110819D02*
X129182857Y-41110819D01*
X129182857Y-41110819D02*
X129325714Y-41158438D01*
X129325714Y-41158438D02*
X129373333Y-41206057D01*
X130278095Y-41110819D02*
X129801905Y-41110819D01*
X129801905Y-41110819D02*
X129754286Y-41587009D01*
X129754286Y-41587009D02*
X129801905Y-41539390D01*
X129801905Y-41539390D02*
X129897143Y-41491771D01*
X129897143Y-41491771D02*
X130135238Y-41491771D01*
X130135238Y-41491771D02*
X130230476Y-41539390D01*
X130230476Y-41539390D02*
X130278095Y-41587009D01*
X130278095Y-41587009D02*
X130325714Y-41682247D01*
X130325714Y-41682247D02*
X130325714Y-41920342D01*
X130325714Y-41920342D02*
X130278095Y-42015580D01*
X130278095Y-42015580D02*
X130230476Y-42063200D01*
X130230476Y-42063200D02*
X130135238Y-42110819D01*
X130135238Y-42110819D02*
X129897143Y-42110819D01*
X129897143Y-42110819D02*
X129801905Y-42063200D01*
X129801905Y-42063200D02*
X129754286Y-42015580D01*
X204065819Y-127461666D02*
X203589628Y-127794999D01*
X204065819Y-128033094D02*
X203065819Y-128033094D01*
X203065819Y-128033094D02*
X203065819Y-127652142D01*
X203065819Y-127652142D02*
X203113438Y-127556904D01*
X203113438Y-127556904D02*
X203161057Y-127509285D01*
X203161057Y-127509285D02*
X203256295Y-127461666D01*
X203256295Y-127461666D02*
X203399152Y-127461666D01*
X203399152Y-127461666D02*
X203494390Y-127509285D01*
X203494390Y-127509285D02*
X203542009Y-127556904D01*
X203542009Y-127556904D02*
X203589628Y-127652142D01*
X203589628Y-127652142D02*
X203589628Y-128033094D01*
X203065819Y-127128332D02*
X203065819Y-126509285D01*
X203065819Y-126509285D02*
X203446771Y-126842618D01*
X203446771Y-126842618D02*
X203446771Y-126699761D01*
X203446771Y-126699761D02*
X203494390Y-126604523D01*
X203494390Y-126604523D02*
X203542009Y-126556904D01*
X203542009Y-126556904D02*
X203637247Y-126509285D01*
X203637247Y-126509285D02*
X203875342Y-126509285D01*
X203875342Y-126509285D02*
X203970580Y-126556904D01*
X203970580Y-126556904D02*
X204018200Y-126604523D01*
X204018200Y-126604523D02*
X204065819Y-126699761D01*
X204065819Y-126699761D02*
X204065819Y-126985475D01*
X204065819Y-126985475D02*
X204018200Y-127080713D01*
X204018200Y-127080713D02*
X203970580Y-127128332D01*
X185463066Y-65157019D02*
X185463066Y-65871304D01*
X185463066Y-65871304D02*
X185415447Y-66014161D01*
X185415447Y-66014161D02*
X185320209Y-66109400D01*
X185320209Y-66109400D02*
X185177352Y-66157019D01*
X185177352Y-66157019D02*
X185082114Y-66157019D01*
X186367828Y-65490352D02*
X186367828Y-66157019D01*
X186129733Y-65109400D02*
X185891638Y-65823685D01*
X185891638Y-65823685D02*
X186510685Y-65823685D01*
X162428819Y-47069333D02*
X163143104Y-47069333D01*
X163143104Y-47069333D02*
X163285961Y-47116952D01*
X163285961Y-47116952D02*
X163381200Y-47212190D01*
X163381200Y-47212190D02*
X163428819Y-47355047D01*
X163428819Y-47355047D02*
X163428819Y-47450285D01*
X162524057Y-46640761D02*
X162476438Y-46593142D01*
X162476438Y-46593142D02*
X162428819Y-46497904D01*
X162428819Y-46497904D02*
X162428819Y-46259809D01*
X162428819Y-46259809D02*
X162476438Y-46164571D01*
X162476438Y-46164571D02*
X162524057Y-46116952D01*
X162524057Y-46116952D02*
X162619295Y-46069333D01*
X162619295Y-46069333D02*
X162714533Y-46069333D01*
X162714533Y-46069333D02*
X162857390Y-46116952D01*
X162857390Y-46116952D02*
X163428819Y-46688380D01*
X163428819Y-46688380D02*
X163428819Y-46069333D01*
X170688095Y-59304819D02*
X170688095Y-60114342D01*
X170688095Y-60114342D02*
X170735714Y-60209580D01*
X170735714Y-60209580D02*
X170783333Y-60257200D01*
X170783333Y-60257200D02*
X170878571Y-60304819D01*
X170878571Y-60304819D02*
X171069047Y-60304819D01*
X171069047Y-60304819D02*
X171164285Y-60257200D01*
X171164285Y-60257200D02*
X171211904Y-60209580D01*
X171211904Y-60209580D02*
X171259523Y-60114342D01*
X171259523Y-60114342D02*
X171259523Y-59304819D01*
X172259523Y-60304819D02*
X171688095Y-60304819D01*
X171973809Y-60304819D02*
X171973809Y-59304819D01*
X171973809Y-59304819D02*
X171878571Y-59447676D01*
X171878571Y-59447676D02*
X171783333Y-59542914D01*
X171783333Y-59542914D02*
X171688095Y-59590533D01*
X188072733Y-54201219D02*
X187739400Y-53725028D01*
X187501305Y-54201219D02*
X187501305Y-53201219D01*
X187501305Y-53201219D02*
X187882257Y-53201219D01*
X187882257Y-53201219D02*
X187977495Y-53248838D01*
X187977495Y-53248838D02*
X188025114Y-53296457D01*
X188025114Y-53296457D02*
X188072733Y-53391695D01*
X188072733Y-53391695D02*
X188072733Y-53534552D01*
X188072733Y-53534552D02*
X188025114Y-53629790D01*
X188025114Y-53629790D02*
X187977495Y-53677409D01*
X187977495Y-53677409D02*
X187882257Y-53725028D01*
X187882257Y-53725028D02*
X187501305Y-53725028D01*
X189025114Y-54201219D02*
X188453686Y-54201219D01*
X188739400Y-54201219D02*
X188739400Y-53201219D01*
X188739400Y-53201219D02*
X188644162Y-53344076D01*
X188644162Y-53344076D02*
X188548924Y-53439314D01*
X188548924Y-53439314D02*
X188453686Y-53486933D01*
X206718819Y-54173333D02*
X207433104Y-54173333D01*
X207433104Y-54173333D02*
X207575961Y-54220952D01*
X207575961Y-54220952D02*
X207671200Y-54316190D01*
X207671200Y-54316190D02*
X207718819Y-54459047D01*
X207718819Y-54459047D02*
X207718819Y-54554285D01*
X207718819Y-53697142D02*
X206718819Y-53697142D01*
X206718819Y-53697142D02*
X206718819Y-53316190D01*
X206718819Y-53316190D02*
X206766438Y-53220952D01*
X206766438Y-53220952D02*
X206814057Y-53173333D01*
X206814057Y-53173333D02*
X206909295Y-53125714D01*
X206909295Y-53125714D02*
X207052152Y-53125714D01*
X207052152Y-53125714D02*
X207147390Y-53173333D01*
X207147390Y-53173333D02*
X207195009Y-53220952D01*
X207195009Y-53220952D02*
X207242628Y-53316190D01*
X207242628Y-53316190D02*
X207242628Y-53697142D01*
X207052152Y-52268571D02*
X207718819Y-52268571D01*
X206671200Y-52506666D02*
X207385485Y-52744761D01*
X207385485Y-52744761D02*
X207385485Y-52125714D01*
D11*
X107482735Y-120729419D02*
X107482735Y-121538942D01*
X107482735Y-121538942D02*
X107530354Y-121634180D01*
X107530354Y-121634180D02*
X107577973Y-121681800D01*
X107577973Y-121681800D02*
X107673211Y-121729419D01*
X107673211Y-121729419D02*
X107863687Y-121729419D01*
X107863687Y-121729419D02*
X107958925Y-121681800D01*
X107958925Y-121681800D02*
X108006544Y-121634180D01*
X108006544Y-121634180D02*
X108054163Y-121538942D01*
X108054163Y-121538942D02*
X108054163Y-120729419D01*
X108435116Y-120729419D02*
X109101782Y-120729419D01*
X109101782Y-120729419D02*
X108673211Y-121729419D01*
D10*
X157627459Y-145843523D02*
X156627459Y-145843523D01*
X156627459Y-145843523D02*
X157341744Y-145510190D01*
X157341744Y-145510190D02*
X156627459Y-145176857D01*
X156627459Y-145176857D02*
X157627459Y-145176857D01*
X156627459Y-144272095D02*
X156627459Y-144462571D01*
X156627459Y-144462571D02*
X156675078Y-144557809D01*
X156675078Y-144557809D02*
X156722697Y-144605428D01*
X156722697Y-144605428D02*
X156865554Y-144700666D01*
X156865554Y-144700666D02*
X157056030Y-144748285D01*
X157056030Y-144748285D02*
X157436982Y-144748285D01*
X157436982Y-144748285D02*
X157532220Y-144700666D01*
X157532220Y-144700666D02*
X157579840Y-144653047D01*
X157579840Y-144653047D02*
X157627459Y-144557809D01*
X157627459Y-144557809D02*
X157627459Y-144367333D01*
X157627459Y-144367333D02*
X157579840Y-144272095D01*
X157579840Y-144272095D02*
X157532220Y-144224476D01*
X157532220Y-144224476D02*
X157436982Y-144176857D01*
X157436982Y-144176857D02*
X157198887Y-144176857D01*
X157198887Y-144176857D02*
X157103649Y-144224476D01*
X157103649Y-144224476D02*
X157056030Y-144272095D01*
X157056030Y-144272095D02*
X157008411Y-144367333D01*
X157008411Y-144367333D02*
X157008411Y-144557809D01*
X157008411Y-144557809D02*
X157056030Y-144653047D01*
X157056030Y-144653047D02*
X157103649Y-144700666D01*
X157103649Y-144700666D02*
X157198887Y-144748285D01*
D11*
X107482735Y-63910086D02*
X107482735Y-64719609D01*
X107482735Y-64719609D02*
X107530354Y-64814847D01*
X107530354Y-64814847D02*
X107577973Y-64862467D01*
X107577973Y-64862467D02*
X107673211Y-64910086D01*
X107673211Y-64910086D02*
X107863687Y-64910086D01*
X107863687Y-64910086D02*
X107958925Y-64862467D01*
X107958925Y-64862467D02*
X108006544Y-64814847D01*
X108006544Y-64814847D02*
X108054163Y-64719609D01*
X108054163Y-64719609D02*
X108054163Y-63910086D01*
X108577973Y-64910086D02*
X108768449Y-64910086D01*
X108768449Y-64910086D02*
X108863687Y-64862467D01*
X108863687Y-64862467D02*
X108911306Y-64814847D01*
X108911306Y-64814847D02*
X109006544Y-64671990D01*
X109006544Y-64671990D02*
X109054163Y-64481514D01*
X109054163Y-64481514D02*
X109054163Y-64100562D01*
X109054163Y-64100562D02*
X109006544Y-64005324D01*
X109006544Y-64005324D02*
X108958925Y-63957705D01*
X108958925Y-63957705D02*
X108863687Y-63910086D01*
X108863687Y-63910086D02*
X108673211Y-63910086D01*
X108673211Y-63910086D02*
X108577973Y-63957705D01*
X108577973Y-63957705D02*
X108530354Y-64005324D01*
X108530354Y-64005324D02*
X108482735Y-64100562D01*
X108482735Y-64100562D02*
X108482735Y-64338657D01*
X108482735Y-64338657D02*
X108530354Y-64433895D01*
X108530354Y-64433895D02*
X108577973Y-64481514D01*
X108577973Y-64481514D02*
X108673211Y-64529133D01*
X108673211Y-64529133D02*
X108863687Y-64529133D01*
X108863687Y-64529133D02*
X108958925Y-64481514D01*
X108958925Y-64481514D02*
X109006544Y-64433895D01*
X109006544Y-64433895D02*
X109054163Y-64338657D01*
X125149220Y-128022505D02*
X124339697Y-128022505D01*
X124339697Y-128022505D02*
X124244459Y-128070124D01*
X124244459Y-128070124D02*
X124196840Y-128117743D01*
X124196840Y-128117743D02*
X124149220Y-128212981D01*
X124149220Y-128212981D02*
X124149220Y-128403457D01*
X124149220Y-128403457D02*
X124196840Y-128498695D01*
X124196840Y-128498695D02*
X124244459Y-128546314D01*
X124244459Y-128546314D02*
X124339697Y-128593933D01*
X124339697Y-128593933D02*
X125149220Y-128593933D01*
X124149220Y-129593933D02*
X124149220Y-129022505D01*
X124149220Y-129308219D02*
X125149220Y-129308219D01*
X125149220Y-129308219D02*
X125006363Y-129212981D01*
X125006363Y-129212981D02*
X124911125Y-129117743D01*
X124911125Y-129117743D02*
X124863506Y-129022505D01*
X124815887Y-130451076D02*
X124149220Y-130451076D01*
X125196840Y-130212981D02*
X124482554Y-129974886D01*
X124482554Y-129974886D02*
X124482554Y-130593933D01*
D10*
X217427276Y-97068819D02*
X217427276Y-96068819D01*
X217427276Y-96068819D02*
X217760609Y-96783104D01*
X217760609Y-96783104D02*
X218093942Y-96068819D01*
X218093942Y-96068819D02*
X218093942Y-97068819D01*
X219046323Y-96068819D02*
X218570133Y-96068819D01*
X218570133Y-96068819D02*
X218522514Y-96545009D01*
X218522514Y-96545009D02*
X218570133Y-96497390D01*
X218570133Y-96497390D02*
X218665371Y-96449771D01*
X218665371Y-96449771D02*
X218903466Y-96449771D01*
X218903466Y-96449771D02*
X218998704Y-96497390D01*
X218998704Y-96497390D02*
X219046323Y-96545009D01*
X219046323Y-96545009D02*
X219093942Y-96640247D01*
X219093942Y-96640247D02*
X219093942Y-96878342D01*
X219093942Y-96878342D02*
X219046323Y-96973580D01*
X219046323Y-96973580D02*
X218998704Y-97021200D01*
X218998704Y-97021200D02*
X218903466Y-97068819D01*
X218903466Y-97068819D02*
X218665371Y-97068819D01*
X218665371Y-97068819D02*
X218570133Y-97021200D01*
X218570133Y-97021200D02*
X218522514Y-96973580D01*
X217424095Y-53399200D02*
X217566952Y-53446819D01*
X217566952Y-53446819D02*
X217805047Y-53446819D01*
X217805047Y-53446819D02*
X217900285Y-53399200D01*
X217900285Y-53399200D02*
X217947904Y-53351580D01*
X217947904Y-53351580D02*
X217995523Y-53256342D01*
X217995523Y-53256342D02*
X217995523Y-53161104D01*
X217995523Y-53161104D02*
X217947904Y-53065866D01*
X217947904Y-53065866D02*
X217900285Y-53018247D01*
X217900285Y-53018247D02*
X217805047Y-52970628D01*
X217805047Y-52970628D02*
X217614571Y-52923009D01*
X217614571Y-52923009D02*
X217519333Y-52875390D01*
X217519333Y-52875390D02*
X217471714Y-52827771D01*
X217471714Y-52827771D02*
X217424095Y-52732533D01*
X217424095Y-52732533D02*
X217424095Y-52637295D01*
X217424095Y-52637295D02*
X217471714Y-52542057D01*
X217471714Y-52542057D02*
X217519333Y-52494438D01*
X217519333Y-52494438D02*
X217614571Y-52446819D01*
X217614571Y-52446819D02*
X217852666Y-52446819D01*
X217852666Y-52446819D02*
X217995523Y-52494438D01*
X218852666Y-52780152D02*
X218852666Y-53446819D01*
X218614571Y-52399200D02*
X218376476Y-53113485D01*
X218376476Y-53113485D02*
X218995523Y-53113485D01*
D11*
X182337419Y-128015904D02*
X183146942Y-128015904D01*
X183146942Y-128015904D02*
X183242180Y-127968285D01*
X183242180Y-127968285D02*
X183289800Y-127920666D01*
X183289800Y-127920666D02*
X183337419Y-127825428D01*
X183337419Y-127825428D02*
X183337419Y-127634952D01*
X183337419Y-127634952D02*
X183289800Y-127539714D01*
X183289800Y-127539714D02*
X183242180Y-127492095D01*
X183242180Y-127492095D02*
X183146942Y-127444476D01*
X183146942Y-127444476D02*
X182337419Y-127444476D01*
X182337419Y-127063523D02*
X182337419Y-126444476D01*
X182337419Y-126444476D02*
X182718371Y-126777809D01*
X182718371Y-126777809D02*
X182718371Y-126634952D01*
X182718371Y-126634952D02*
X182765990Y-126539714D01*
X182765990Y-126539714D02*
X182813609Y-126492095D01*
X182813609Y-126492095D02*
X182908847Y-126444476D01*
X182908847Y-126444476D02*
X183146942Y-126444476D01*
X183146942Y-126444476D02*
X183242180Y-126492095D01*
X183242180Y-126492095D02*
X183289800Y-126539714D01*
X183289800Y-126539714D02*
X183337419Y-126634952D01*
X183337419Y-126634952D02*
X183337419Y-126920666D01*
X183337419Y-126920666D02*
X183289800Y-127015904D01*
X183289800Y-127015904D02*
X183242180Y-127063523D01*
D10*
X195017104Y-88776085D02*
X195017104Y-88299895D01*
X195302819Y-88871323D02*
X194302819Y-88537990D01*
X194302819Y-88537990D02*
X195302819Y-88204657D01*
X194398057Y-87918942D02*
X194350438Y-87871323D01*
X194350438Y-87871323D02*
X194302819Y-87776085D01*
X194302819Y-87776085D02*
X194302819Y-87537990D01*
X194302819Y-87537990D02*
X194350438Y-87442752D01*
X194350438Y-87442752D02*
X194398057Y-87395133D01*
X194398057Y-87395133D02*
X194493295Y-87347514D01*
X194493295Y-87347514D02*
X194588533Y-87347514D01*
X194588533Y-87347514D02*
X194731390Y-87395133D01*
X194731390Y-87395133D02*
X195302819Y-87966561D01*
X195302819Y-87966561D02*
X195302819Y-87347514D01*
X93218095Y-142694819D02*
X93218095Y-141694819D01*
X93218095Y-142171009D02*
X93789523Y-142171009D01*
X93789523Y-142694819D02*
X93789523Y-141694819D01*
X94170476Y-141694819D02*
X94789523Y-141694819D01*
X94789523Y-141694819D02*
X94456190Y-142075771D01*
X94456190Y-142075771D02*
X94599047Y-142075771D01*
X94599047Y-142075771D02*
X94694285Y-142123390D01*
X94694285Y-142123390D02*
X94741904Y-142171009D01*
X94741904Y-142171009D02*
X94789523Y-142266247D01*
X94789523Y-142266247D02*
X94789523Y-142504342D01*
X94789523Y-142504342D02*
X94741904Y-142599580D01*
X94741904Y-142599580D02*
X94694285Y-142647200D01*
X94694285Y-142647200D02*
X94599047Y-142694819D01*
X94599047Y-142694819D02*
X94313333Y-142694819D01*
X94313333Y-142694819D02*
X94218095Y-142647200D01*
X94218095Y-142647200D02*
X94170476Y-142599580D01*
X165852819Y-67984666D02*
X165376628Y-68317999D01*
X165852819Y-68556094D02*
X164852819Y-68556094D01*
X164852819Y-68556094D02*
X164852819Y-68175142D01*
X164852819Y-68175142D02*
X164900438Y-68079904D01*
X164900438Y-68079904D02*
X164948057Y-68032285D01*
X164948057Y-68032285D02*
X165043295Y-67984666D01*
X165043295Y-67984666D02*
X165186152Y-67984666D01*
X165186152Y-67984666D02*
X165281390Y-68032285D01*
X165281390Y-68032285D02*
X165329009Y-68079904D01*
X165329009Y-68079904D02*
X165376628Y-68175142D01*
X165376628Y-68175142D02*
X165376628Y-68556094D01*
X164948057Y-67603713D02*
X164900438Y-67556094D01*
X164900438Y-67556094D02*
X164852819Y-67460856D01*
X164852819Y-67460856D02*
X164852819Y-67222761D01*
X164852819Y-67222761D02*
X164900438Y-67127523D01*
X164900438Y-67127523D02*
X164948057Y-67079904D01*
X164948057Y-67079904D02*
X165043295Y-67032285D01*
X165043295Y-67032285D02*
X165138533Y-67032285D01*
X165138533Y-67032285D02*
X165281390Y-67079904D01*
X165281390Y-67079904D02*
X165852819Y-67651332D01*
X165852819Y-67651332D02*
X165852819Y-67032285D01*
X211798819Y-54173333D02*
X212513104Y-54173333D01*
X212513104Y-54173333D02*
X212655961Y-54220952D01*
X212655961Y-54220952D02*
X212751200Y-54316190D01*
X212751200Y-54316190D02*
X212798819Y-54459047D01*
X212798819Y-54459047D02*
X212798819Y-54554285D01*
X212798819Y-53697142D02*
X211798819Y-53697142D01*
X211798819Y-53697142D02*
X211798819Y-53316190D01*
X211798819Y-53316190D02*
X211846438Y-53220952D01*
X211846438Y-53220952D02*
X211894057Y-53173333D01*
X211894057Y-53173333D02*
X211989295Y-53125714D01*
X211989295Y-53125714D02*
X212132152Y-53125714D01*
X212132152Y-53125714D02*
X212227390Y-53173333D01*
X212227390Y-53173333D02*
X212275009Y-53220952D01*
X212275009Y-53220952D02*
X212322628Y-53316190D01*
X212322628Y-53316190D02*
X212322628Y-53697142D01*
X212798819Y-52173333D02*
X212798819Y-52744761D01*
X212798819Y-52459047D02*
X211798819Y-52459047D01*
X211798819Y-52459047D02*
X211941676Y-52554285D01*
X211941676Y-52554285D02*
X212036914Y-52649523D01*
X212036914Y-52649523D02*
X212084533Y-52744761D01*
X128417459Y-145589523D02*
X127417459Y-145589523D01*
X127417459Y-145589523D02*
X128131744Y-145256190D01*
X128131744Y-145256190D02*
X127417459Y-144922857D01*
X127417459Y-144922857D02*
X128417459Y-144922857D01*
X127417459Y-144541904D02*
X127417459Y-143875238D01*
X127417459Y-143875238D02*
X128417459Y-144303809D01*
X132000666Y-41270819D02*
X132000666Y-41985104D01*
X132000666Y-41985104D02*
X131953047Y-42127961D01*
X131953047Y-42127961D02*
X131857809Y-42223200D01*
X131857809Y-42223200D02*
X131714952Y-42270819D01*
X131714952Y-42270819D02*
X131619714Y-42270819D01*
X132953047Y-41270819D02*
X132476857Y-41270819D01*
X132476857Y-41270819D02*
X132429238Y-41747009D01*
X132429238Y-41747009D02*
X132476857Y-41699390D01*
X132476857Y-41699390D02*
X132572095Y-41651771D01*
X132572095Y-41651771D02*
X132810190Y-41651771D01*
X132810190Y-41651771D02*
X132905428Y-41699390D01*
X132905428Y-41699390D02*
X132953047Y-41747009D01*
X132953047Y-41747009D02*
X133000666Y-41842247D01*
X133000666Y-41842247D02*
X133000666Y-42080342D01*
X133000666Y-42080342D02*
X132953047Y-42175580D01*
X132953047Y-42175580D02*
X132905428Y-42223200D01*
X132905428Y-42223200D02*
X132810190Y-42270819D01*
X132810190Y-42270819D02*
X132572095Y-42270819D01*
X132572095Y-42270819D02*
X132476857Y-42223200D01*
X132476857Y-42223200D02*
X132429238Y-42175580D01*
X210051200Y-145541904D02*
X210098819Y-145399047D01*
X210098819Y-145399047D02*
X210098819Y-145160952D01*
X210098819Y-145160952D02*
X210051200Y-145065714D01*
X210051200Y-145065714D02*
X210003580Y-145018095D01*
X210003580Y-145018095D02*
X209908342Y-144970476D01*
X209908342Y-144970476D02*
X209813104Y-144970476D01*
X209813104Y-144970476D02*
X209717866Y-145018095D01*
X209717866Y-145018095D02*
X209670247Y-145065714D01*
X209670247Y-145065714D02*
X209622628Y-145160952D01*
X209622628Y-145160952D02*
X209575009Y-145351428D01*
X209575009Y-145351428D02*
X209527390Y-145446666D01*
X209527390Y-145446666D02*
X209479771Y-145494285D01*
X209479771Y-145494285D02*
X209384533Y-145541904D01*
X209384533Y-145541904D02*
X209289295Y-145541904D01*
X209289295Y-145541904D02*
X209194057Y-145494285D01*
X209194057Y-145494285D02*
X209146438Y-145446666D01*
X209146438Y-145446666D02*
X209098819Y-145351428D01*
X209098819Y-145351428D02*
X209098819Y-145113333D01*
X209098819Y-145113333D02*
X209146438Y-144970476D01*
X209194057Y-144589523D02*
X209146438Y-144541904D01*
X209146438Y-144541904D02*
X209098819Y-144446666D01*
X209098819Y-144446666D02*
X209098819Y-144208571D01*
X209098819Y-144208571D02*
X209146438Y-144113333D01*
X209146438Y-144113333D02*
X209194057Y-144065714D01*
X209194057Y-144065714D02*
X209289295Y-144018095D01*
X209289295Y-144018095D02*
X209384533Y-144018095D01*
X209384533Y-144018095D02*
X209527390Y-144065714D01*
X209527390Y-144065714D02*
X210098819Y-144637142D01*
X210098819Y-144637142D02*
X210098819Y-144018095D01*
X171791333Y-41761580D02*
X171743714Y-41809200D01*
X171743714Y-41809200D02*
X171600857Y-41856819D01*
X171600857Y-41856819D02*
X171505619Y-41856819D01*
X171505619Y-41856819D02*
X171362762Y-41809200D01*
X171362762Y-41809200D02*
X171267524Y-41713961D01*
X171267524Y-41713961D02*
X171219905Y-41618723D01*
X171219905Y-41618723D02*
X171172286Y-41428247D01*
X171172286Y-41428247D02*
X171172286Y-41285390D01*
X171172286Y-41285390D02*
X171219905Y-41094914D01*
X171219905Y-41094914D02*
X171267524Y-40999676D01*
X171267524Y-40999676D02*
X171362762Y-40904438D01*
X171362762Y-40904438D02*
X171505619Y-40856819D01*
X171505619Y-40856819D02*
X171600857Y-40856819D01*
X171600857Y-40856819D02*
X171743714Y-40904438D01*
X171743714Y-40904438D02*
X171791333Y-40952057D01*
X172648476Y-40856819D02*
X172458000Y-40856819D01*
X172458000Y-40856819D02*
X172362762Y-40904438D01*
X172362762Y-40904438D02*
X172315143Y-40952057D01*
X172315143Y-40952057D02*
X172219905Y-41094914D01*
X172219905Y-41094914D02*
X172172286Y-41285390D01*
X172172286Y-41285390D02*
X172172286Y-41666342D01*
X172172286Y-41666342D02*
X172219905Y-41761580D01*
X172219905Y-41761580D02*
X172267524Y-41809200D01*
X172267524Y-41809200D02*
X172362762Y-41856819D01*
X172362762Y-41856819D02*
X172553238Y-41856819D01*
X172553238Y-41856819D02*
X172648476Y-41809200D01*
X172648476Y-41809200D02*
X172696095Y-41761580D01*
X172696095Y-41761580D02*
X172743714Y-41666342D01*
X172743714Y-41666342D02*
X172743714Y-41428247D01*
X172743714Y-41428247D02*
X172696095Y-41333009D01*
X172696095Y-41333009D02*
X172648476Y-41285390D01*
X172648476Y-41285390D02*
X172553238Y-41237771D01*
X172553238Y-41237771D02*
X172362762Y-41237771D01*
X172362762Y-41237771D02*
X172267524Y-41285390D01*
X172267524Y-41285390D02*
X172219905Y-41333009D01*
X172219905Y-41333009D02*
X172172286Y-41428247D01*
X88639116Y-60746819D02*
X88639116Y-59746819D01*
X88639116Y-59746819D02*
X88972449Y-60461104D01*
X88972449Y-60461104D02*
X89305782Y-59746819D01*
X89305782Y-59746819D02*
X89305782Y-60746819D01*
X90210544Y-60080152D02*
X90210544Y-60746819D01*
X89972449Y-59699200D02*
X89734354Y-60413485D01*
X89734354Y-60413485D02*
X90353401Y-60413485D01*
X162647333Y-41761580D02*
X162599714Y-41809200D01*
X162599714Y-41809200D02*
X162456857Y-41856819D01*
X162456857Y-41856819D02*
X162361619Y-41856819D01*
X162361619Y-41856819D02*
X162218762Y-41809200D01*
X162218762Y-41809200D02*
X162123524Y-41713961D01*
X162123524Y-41713961D02*
X162075905Y-41618723D01*
X162075905Y-41618723D02*
X162028286Y-41428247D01*
X162028286Y-41428247D02*
X162028286Y-41285390D01*
X162028286Y-41285390D02*
X162075905Y-41094914D01*
X162075905Y-41094914D02*
X162123524Y-40999676D01*
X162123524Y-40999676D02*
X162218762Y-40904438D01*
X162218762Y-40904438D02*
X162361619Y-40856819D01*
X162361619Y-40856819D02*
X162456857Y-40856819D01*
X162456857Y-40856819D02*
X162599714Y-40904438D01*
X162599714Y-40904438D02*
X162647333Y-40952057D01*
X163218762Y-41285390D02*
X163123524Y-41237771D01*
X163123524Y-41237771D02*
X163075905Y-41190152D01*
X163075905Y-41190152D02*
X163028286Y-41094914D01*
X163028286Y-41094914D02*
X163028286Y-41047295D01*
X163028286Y-41047295D02*
X163075905Y-40952057D01*
X163075905Y-40952057D02*
X163123524Y-40904438D01*
X163123524Y-40904438D02*
X163218762Y-40856819D01*
X163218762Y-40856819D02*
X163409238Y-40856819D01*
X163409238Y-40856819D02*
X163504476Y-40904438D01*
X163504476Y-40904438D02*
X163552095Y-40952057D01*
X163552095Y-40952057D02*
X163599714Y-41047295D01*
X163599714Y-41047295D02*
X163599714Y-41094914D01*
X163599714Y-41094914D02*
X163552095Y-41190152D01*
X163552095Y-41190152D02*
X163504476Y-41237771D01*
X163504476Y-41237771D02*
X163409238Y-41285390D01*
X163409238Y-41285390D02*
X163218762Y-41285390D01*
X163218762Y-41285390D02*
X163123524Y-41333009D01*
X163123524Y-41333009D02*
X163075905Y-41380628D01*
X163075905Y-41380628D02*
X163028286Y-41475866D01*
X163028286Y-41475866D02*
X163028286Y-41666342D01*
X163028286Y-41666342D02*
X163075905Y-41761580D01*
X163075905Y-41761580D02*
X163123524Y-41809200D01*
X163123524Y-41809200D02*
X163218762Y-41856819D01*
X163218762Y-41856819D02*
X163409238Y-41856819D01*
X163409238Y-41856819D02*
X163504476Y-41809200D01*
X163504476Y-41809200D02*
X163552095Y-41761580D01*
X163552095Y-41761580D02*
X163599714Y-41666342D01*
X163599714Y-41666342D02*
X163599714Y-41475866D01*
X163599714Y-41475866D02*
X163552095Y-41380628D01*
X163552095Y-41380628D02*
X163504476Y-41333009D01*
X163504476Y-41333009D02*
X163409238Y-41285390D01*
X184500819Y-67984666D02*
X184024628Y-68317999D01*
X184500819Y-68556094D02*
X183500819Y-68556094D01*
X183500819Y-68556094D02*
X183500819Y-68175142D01*
X183500819Y-68175142D02*
X183548438Y-68079904D01*
X183548438Y-68079904D02*
X183596057Y-68032285D01*
X183596057Y-68032285D02*
X183691295Y-67984666D01*
X183691295Y-67984666D02*
X183834152Y-67984666D01*
X183834152Y-67984666D02*
X183929390Y-68032285D01*
X183929390Y-68032285D02*
X183977009Y-68079904D01*
X183977009Y-68079904D02*
X184024628Y-68175142D01*
X184024628Y-68175142D02*
X184024628Y-68556094D01*
X183834152Y-67127523D02*
X184500819Y-67127523D01*
X183453200Y-67365618D02*
X184167485Y-67603713D01*
X184167485Y-67603713D02*
X184167485Y-66984666D01*
D12*
%TO.C,A3*%
X135694000Y-45256000D02*
X135214000Y-45256000D01*
X135694000Y-45256000D02*
X135694000Y-45676000D01*
X135694000Y-47796000D02*
X135694000Y-48216000D01*
X135694000Y-50336000D02*
X135694000Y-50756000D01*
X135694000Y-52876000D02*
X135694000Y-53296000D01*
X135694000Y-55416000D02*
X135694000Y-55836000D01*
X135694000Y-57956000D02*
X135694000Y-58376000D01*
X135694000Y-60496000D02*
X135694000Y-60916000D01*
X135694000Y-63036000D02*
X135694000Y-63456000D01*
X135694000Y-65576000D02*
X135694000Y-65996000D01*
X135694000Y-68116000D02*
X135694000Y-68536000D01*
X135694000Y-70656000D02*
X135694000Y-71076000D01*
X135694000Y-73196000D02*
X135694000Y-73616000D01*
X135694000Y-75736000D02*
X135694000Y-76156000D01*
X135694000Y-78276000D02*
X135694000Y-78696000D01*
X135694000Y-80816000D02*
X135694000Y-81236000D01*
X135694000Y-83356000D02*
X135694000Y-83776000D01*
X135694000Y-85896000D02*
X135694000Y-86316000D01*
X135694000Y-88436000D02*
X135694000Y-88856000D01*
X135694000Y-90976000D02*
X135694000Y-91396000D01*
X135724324Y-43136000D02*
X135214000Y-43136000D01*
X136034000Y-43136063D02*
X136034000Y-42779000D01*
X136034000Y-45256000D02*
X136034000Y-45676000D01*
X136034000Y-47796000D02*
X136034000Y-48216000D01*
X136034000Y-50336000D02*
X136034000Y-50756000D01*
X136034000Y-52876000D02*
X136034000Y-53296000D01*
X136034000Y-55416000D02*
X136034000Y-55836000D01*
X136034000Y-57956000D02*
X136034000Y-58376000D01*
X136034000Y-60496000D02*
X136034000Y-60916000D01*
X136034000Y-63036000D02*
X136034000Y-63456000D01*
X136034000Y-65576000D02*
X136034000Y-65996000D01*
X136034000Y-68116000D02*
X136034000Y-68536000D01*
X136034000Y-70656000D02*
X136034000Y-71076000D01*
X136034000Y-73196000D02*
X136034000Y-73616000D01*
X136034000Y-75736000D02*
X136034000Y-76156000D01*
X136034000Y-78276000D02*
X136034000Y-78696000D01*
X136034000Y-80816000D02*
X136034000Y-81236000D01*
X136034000Y-83356000D02*
X136034000Y-83776000D01*
X136034000Y-85896000D02*
X136034000Y-86316000D01*
X136034000Y-88436000D02*
X136034000Y-88856000D01*
X136034000Y-90976000D02*
X136034000Y-91396000D01*
X136034000Y-93515937D02*
X136034000Y-93873000D01*
X136304000Y-42716000D02*
X138794000Y-42716000D01*
X136304000Y-93936000D02*
X140141939Y-93936000D01*
X138794000Y-42716000D02*
X138794000Y-43629520D01*
X138794000Y-42716000D02*
X140141940Y-42716000D01*
X138794000Y-46022480D02*
X138794000Y-90629520D01*
X138794000Y-93022480D02*
X138794000Y-93936000D01*
X141066061Y-42716000D02*
X142069000Y-42716000D01*
X142069000Y-42716000D02*
X150539000Y-42716000D01*
X142404000Y-42716000D02*
X142404000Y-43632000D01*
X142404000Y-46020000D02*
X142404000Y-47236000D01*
X142404000Y-47236000D02*
X142700090Y-47236000D01*
X142704000Y-93936000D02*
X141066061Y-93936000D01*
X145057910Y-47236000D02*
X147550090Y-47236000D01*
X149904000Y-93936000D02*
X142704000Y-93936000D01*
X149907910Y-47236000D02*
X150204000Y-47236000D01*
X150204000Y-42716000D02*
X150204000Y-43632000D01*
X150204000Y-46020000D02*
X150204000Y-47236000D01*
X150539000Y-42716000D02*
X151541939Y-42716000D01*
X151541939Y-93936000D02*
X149904000Y-93936000D01*
X152466061Y-42716000D02*
X153814000Y-42716000D01*
X152466061Y-93936000D02*
X156304000Y-93936000D01*
X153814000Y-42716000D02*
X153814000Y-43629520D01*
X153814000Y-46022480D02*
X153814000Y-90629520D01*
X153814000Y-93022480D02*
X153814000Y-93936000D01*
X156304000Y-42716000D02*
X153814000Y-42716000D01*
X156574000Y-43136063D02*
X156574000Y-42779000D01*
X156574000Y-45256000D02*
X156574000Y-45676000D01*
X156574000Y-47796000D02*
X156574000Y-48216000D01*
X156574000Y-50336000D02*
X156574000Y-50756000D01*
X156574000Y-52876000D02*
X156574000Y-53296000D01*
X156574000Y-55416000D02*
X156574000Y-55836000D01*
X156574000Y-57956000D02*
X156574000Y-58376000D01*
X156574000Y-60496000D02*
X156574000Y-60916000D01*
X156574000Y-63036000D02*
X156574000Y-63456000D01*
X156574000Y-65576000D02*
X156574000Y-65996000D01*
X156574000Y-68116000D02*
X156574000Y-68536000D01*
X156574000Y-70656000D02*
X156574000Y-71076000D01*
X156574000Y-73196000D02*
X156574000Y-73616000D01*
X156574000Y-75736000D02*
X156574000Y-76156000D01*
X156574000Y-78276000D02*
X156574000Y-78696000D01*
X156574000Y-80816000D02*
X156574000Y-81236000D01*
X156574000Y-83356000D02*
X156574000Y-83776000D01*
X156574000Y-85896000D02*
X156574000Y-86316000D01*
X156574000Y-88436000D02*
X156574000Y-88856000D01*
X156574000Y-90976000D02*
X156574000Y-91396000D01*
X156574000Y-93515937D02*
X156574000Y-93873000D01*
X156914000Y-45256000D02*
X156914000Y-45676000D01*
X156914000Y-47796000D02*
X156914000Y-48216000D01*
X156914000Y-50336000D02*
X156914000Y-50756000D01*
X156914000Y-52876000D02*
X156914000Y-53296000D01*
X156914000Y-55416000D02*
X156914000Y-55836000D01*
X156914000Y-57956000D02*
X156914000Y-58376000D01*
X156914000Y-60496000D02*
X156914000Y-60916000D01*
X156914000Y-63036000D02*
X156914000Y-63456000D01*
X156914000Y-65576000D02*
X156914000Y-65996000D01*
X156914000Y-68116000D02*
X156914000Y-68536000D01*
X156914000Y-70656000D02*
X156914000Y-71076000D01*
X156914000Y-73196000D02*
X156914000Y-73616000D01*
X156914000Y-75736000D02*
X156914000Y-76156000D01*
X156914000Y-78276000D02*
X156914000Y-78696000D01*
X156914000Y-80816000D02*
X156914000Y-81236000D01*
X156914000Y-83356000D02*
X156914000Y-83776000D01*
X156914000Y-85896000D02*
X156914000Y-86316000D01*
X156914000Y-88436000D02*
X156914000Y-88856000D01*
X156914000Y-90976000D02*
X156914000Y-91396000D01*
X135724324Y-43136000D02*
G75*
G02*
X136304000Y-42716000I579692J-190051D01*
G01*
X136304000Y-93936000D02*
G75*
G02*
X135724324Y-93515937I1J610002D01*
G01*
X156304000Y-42716000D02*
G75*
G02*
X156883676Y-43136063I0J-610000D01*
G01*
X156883676Y-93515937D02*
G75*
G02*
X156304000Y-93936069I-579676J189837D01*
G01*
%TO.C,A1*%
X164024000Y-34230000D02*
X165354000Y-34230000D01*
X164024000Y-35560000D02*
X164024000Y-34230000D01*
X164024000Y-36830000D02*
X166624000Y-36830000D01*
X164024000Y-39430000D02*
X164024000Y-36830000D01*
X164024000Y-39430000D02*
X214944000Y-39430000D01*
X166624000Y-34230000D02*
X214944000Y-34230000D01*
X166624000Y-36830000D02*
X166624000Y-34230000D01*
X214944000Y-39430000D02*
X214944000Y-34230000D01*
D13*
%TO.C,U6*%
X143764000Y-111023400D02*
X149352000Y-111023400D01*
X149352000Y-95732600D02*
X143764000Y-95732600D01*
X146253200Y-111023400D02*
G75*
G02*
X146862800Y-111023400I304800J0D01*
G01*
D14*
G36*
X141846300Y-105473500D02*
G01*
X141592300Y-105473500D01*
X141592300Y-105092500D01*
X141846300Y-105092500D01*
X141846300Y-105473500D01*
G37*
G36*
X151523700Y-99123500D02*
G01*
X151269700Y-99123500D01*
X151269700Y-98742500D01*
X151523700Y-98742500D01*
X151523700Y-99123500D01*
G37*
D12*
%TO.C,C3*%
X151636000Y-109581733D02*
X151636000Y-109874267D01*
X152656000Y-109581733D02*
X152656000Y-109874267D01*
%TO.C,JP3*%
X213884000Y-48892000D02*
X215884000Y-48892000D01*
X213884000Y-51692000D02*
X213884000Y-48892000D01*
X215884000Y-48892000D02*
X215884000Y-51692000D01*
X215884000Y-51692000D02*
X213884000Y-51692000D01*
%TO.C,U5*%
X125874000Y-36161200D02*
X125874000Y-38921200D01*
X131064000Y-36161200D02*
X125874000Y-36161200D01*
X131064000Y-36161200D02*
X131064000Y-38921200D01*
X131064000Y-38921200D02*
X125874000Y-38921200D01*
X132334000Y-36161200D02*
X133714000Y-36161200D01*
X133714000Y-36161200D02*
X133714000Y-37541200D01*
%TO.C,C1*%
X140460000Y-108311733D02*
X140460000Y-108604267D01*
X141480000Y-108311733D02*
X141480000Y-108604267D01*
%TO.C,U2*%
X172438000Y-50429000D02*
X176558000Y-50429000D01*
X172438000Y-50494000D02*
X172438000Y-50429000D01*
X172438000Y-59299000D02*
X172438000Y-59234000D01*
X176558000Y-50429000D02*
X176558000Y-50494000D01*
X176558000Y-59234000D02*
X176558000Y-59299000D01*
X176558000Y-59299000D02*
X172438000Y-59299000D01*
X171898000Y-50494000D02*
X171658000Y-50164000D01*
X172138000Y-50164000D01*
X171898000Y-50494000D01*
G36*
X171898000Y-50494000D02*
G01*
X171658000Y-50164000D01*
X172138000Y-50164000D01*
X171898000Y-50494000D01*
G37*
%TO.C,C4*%
X162304000Y-48152267D02*
X162304000Y-47859733D01*
X163324000Y-48152267D02*
X163324000Y-47859733D01*
%TO.C,M1*%
X88068640Y-133350000D02*
X88068640Y-120540000D01*
X90828640Y-120540000D02*
X88068640Y-120540000D01*
X90828640Y-133350000D02*
X88068640Y-133350000D01*
X90828640Y-133350000D02*
X90828640Y-120540000D01*
X90828640Y-134620000D02*
X90828640Y-136000000D01*
X90828640Y-136000000D02*
X89448640Y-136000000D01*
%TO.C,U4*%
X175882000Y-60850000D02*
X177262000Y-60850000D01*
X175882000Y-62230000D02*
X175882000Y-60850000D01*
X175882000Y-63500000D02*
X175882000Y-78850000D01*
X175882000Y-63500000D02*
X178642000Y-63500000D01*
X175882000Y-78850000D02*
X178642000Y-78850000D01*
X178642000Y-63500000D02*
X178642000Y-78850000D01*
%TO.C,S1*%
X188104000Y-143400000D02*
X188104000Y-146160000D01*
X193294000Y-143400000D02*
X188104000Y-143400000D01*
X193294000Y-143400000D02*
X193294000Y-146160000D01*
X193294000Y-146160000D02*
X188104000Y-146160000D01*
X194564000Y-143400000D02*
X195944000Y-143400000D01*
X195944000Y-143400000D02*
X195944000Y-144780000D01*
%TO.C,C7*%
X176829767Y-49020000D02*
X176537233Y-49020000D01*
X176829767Y-50040000D02*
X176537233Y-50040000D01*
%TO.C,J1*%
X212288000Y-122592400D02*
X220528000Y-122592400D01*
X212288000Y-132992400D02*
X212288000Y-122592400D01*
X214408000Y-132992400D02*
X214408000Y-122592400D01*
X218408000Y-132992400D02*
X218408000Y-122592400D01*
X220528000Y-122592400D02*
X220528000Y-130032400D01*
X220528000Y-130632400D02*
X220528000Y-132992400D01*
X220528000Y-132992400D02*
X212288000Y-132992400D01*
X221138000Y-130772400D02*
X220528000Y-130332400D01*
X221138000Y-129892400D01*
X221138000Y-130772400D01*
G36*
X221138000Y-130772400D02*
G01*
X220528000Y-130332400D01*
X221138000Y-129892400D01*
X221138000Y-130772400D01*
G37*
%TO.C,M3*%
X88068640Y-82211333D02*
X88068640Y-69401333D01*
X90828640Y-69401333D02*
X88068640Y-69401333D01*
X90828640Y-82211333D02*
X88068640Y-82211333D01*
X90828640Y-82211333D02*
X90828640Y-69401333D01*
X90828640Y-83481333D02*
X90828640Y-84861333D01*
X90828640Y-84861333D02*
X89448640Y-84861333D01*
D11*
%TO.C,U13*%
X153710640Y-116586000D02*
X153710640Y-141986000D01*
X153710640Y-116586000D02*
X179110640Y-116586000D01*
X153710640Y-141986000D02*
X179110640Y-141986000D01*
X179110640Y-116586000D02*
X179110640Y-141986000D01*
X166085640Y-119451400D02*
X164180640Y-119451400D01*
X164180640Y-121356400D01*
X166085640Y-121356400D01*
X166085640Y-119451400D01*
X173675640Y-119461400D02*
X171770640Y-119461400D01*
X171770640Y-121366400D01*
X173675640Y-121366400D01*
X173675640Y-119461400D01*
X168633140Y-120421400D02*
G75*
G02*
X166728140Y-120421400I-952500J0D01*
G01*
X166728140Y-120421400D02*
G75*
G02*
X168633140Y-120421400I952500J0D01*
G01*
X171173140Y-120421400D02*
G75*
G02*
X169268140Y-120421400I-952500J0D01*
G01*
X169268140Y-120421400D02*
G75*
G02*
X171173140Y-120421400I952500J0D01*
G01*
X177213260Y-120421400D02*
G75*
G02*
X175308260Y-120421400I-952500J0D01*
G01*
X175308260Y-120421400D02*
G75*
G02*
X177213260Y-120421400I952500J0D01*
G01*
X178793140Y-120421400D02*
G75*
G02*
X176888140Y-120421400I-952500J0D01*
G01*
X176888140Y-120421400D02*
G75*
G02*
X178793140Y-120421400I952500J0D01*
G01*
D12*
%TO.C,J3*%
X163974000Y-45576000D02*
X163974000Y-44196000D01*
X165354000Y-45576000D02*
X163974000Y-45576000D01*
X166624000Y-42816000D02*
X214994000Y-42816000D01*
X166624000Y-45576000D02*
X166624000Y-42816000D01*
X166624000Y-45576000D02*
X214994000Y-45576000D01*
X214994000Y-45576000D02*
X214994000Y-42816000D01*
%TO.C,C2*%
X144772767Y-111758000D02*
X144480233Y-111758000D01*
X144772767Y-112778000D02*
X144480233Y-112778000D01*
%TO.C,S3*%
X216755200Y-64660000D02*
X218135200Y-64660000D01*
X216755200Y-66040000D02*
X216755200Y-64660000D01*
X216755200Y-67310000D02*
X216755200Y-72500000D01*
X216755200Y-67310000D02*
X219515200Y-67310000D01*
X216755200Y-72500000D02*
X219515200Y-72500000D01*
X219515200Y-67310000D02*
X219515200Y-72500000D01*
%TO.C,M2*%
X88068640Y-107780667D02*
X88068640Y-94970667D01*
X90828640Y-94970667D02*
X88068640Y-94970667D01*
X90828640Y-107780667D02*
X88068640Y-107780667D01*
X90828640Y-107780667D02*
X90828640Y-94970667D01*
X90828640Y-109050667D02*
X90828640Y-110430667D01*
X90828640Y-110430667D02*
X89448640Y-110430667D01*
D11*
%TO.C,U10*%
X95544640Y-34163000D02*
X95544640Y-59563000D01*
X120944640Y-34163000D02*
X95544640Y-34163000D01*
X120944640Y-34163000D02*
X120944640Y-59563000D01*
X120944640Y-59563000D02*
X95544640Y-59563000D01*
X118069240Y-54128000D02*
X116164240Y-54128000D01*
X116164240Y-52223000D01*
X118069240Y-52223000D01*
X118069240Y-54128000D01*
X118079240Y-46538000D02*
X116174240Y-46538000D01*
X116174240Y-44633000D01*
X118079240Y-44633000D01*
X118079240Y-46538000D01*
X118061740Y-48133000D02*
G75*
G02*
X116156740Y-48133000I-952500J0D01*
G01*
X116156740Y-48133000D02*
G75*
G02*
X118061740Y-48133000I952500J0D01*
G01*
X118061740Y-50673000D02*
G75*
G02*
X116156740Y-50673000I-952500J0D01*
G01*
X116156740Y-50673000D02*
G75*
G02*
X118061740Y-50673000I952500J0D01*
G01*
X118061740Y-56713120D02*
G75*
G02*
X116156740Y-56713120I-952500J0D01*
G01*
X116156740Y-56713120D02*
G75*
G02*
X118061740Y-56713120I952500J0D01*
G01*
X118061740Y-58293000D02*
G75*
G02*
X116156740Y-58293000I-952500J0D01*
G01*
X116156740Y-58293000D02*
G75*
G02*
X118061740Y-58293000I952500J0D01*
G01*
D12*
%TO.C,U12*%
X196376000Y-84582000D02*
X196342000Y-68326000D01*
X199102000Y-68326000D02*
X196342000Y-68326000D01*
X199136000Y-84582000D02*
X196376000Y-84582000D01*
X214596000Y-68326000D02*
X211836000Y-68326000D01*
X214596000Y-84582000D02*
X211836000Y-84582000D01*
X214647000Y-84582000D02*
X214613000Y-68326000D01*
X214884000Y-84836000D02*
X213106000Y-84836000D01*
X214884000Y-84836000D02*
X214884000Y-83058000D01*
%TO.C,JP2*%
X208804000Y-48892000D02*
X210804000Y-48892000D01*
X208804000Y-51692000D02*
X208804000Y-48892000D01*
X210804000Y-48892000D02*
X210804000Y-51692000D01*
X210804000Y-51692000D02*
X208804000Y-51692000D01*
%TO.C,SW1*%
X213158000Y-112380200D02*
X213158000Y-116880200D01*
X215658000Y-118130200D02*
X217158000Y-118130200D01*
X217158000Y-111130200D02*
X215658000Y-111130200D01*
X219658000Y-116880200D02*
X219658000Y-112380200D01*
%TO.C,U11*%
X196376000Y-102362000D02*
X196342000Y-86106000D01*
X199102000Y-86106000D02*
X196342000Y-86106000D01*
X199136000Y-102362000D02*
X196376000Y-102362000D01*
X214596000Y-86106000D02*
X211836000Y-86106000D01*
X214596000Y-102362000D02*
X211836000Y-102362000D01*
X214647000Y-102362000D02*
X214613000Y-86106000D01*
X214884000Y-102616000D02*
X213106000Y-102616000D01*
X214884000Y-102616000D02*
X214884000Y-100838000D01*
D11*
%TO.C,U8*%
X95544640Y-91482333D02*
X95544640Y-116882333D01*
X120944640Y-91482333D02*
X95544640Y-91482333D01*
X120944640Y-91482333D02*
X120944640Y-116882333D01*
X120944640Y-116882333D02*
X95544640Y-116882333D01*
X118069240Y-111447333D02*
X116164240Y-111447333D01*
X116164240Y-109542333D01*
X118069240Y-109542333D01*
X118069240Y-111447333D01*
X118079240Y-103857333D02*
X116174240Y-103857333D01*
X116174240Y-101952333D01*
X118079240Y-101952333D01*
X118079240Y-103857333D01*
X118061740Y-105452333D02*
G75*
G02*
X116156740Y-105452333I-952500J0D01*
G01*
X116156740Y-105452333D02*
G75*
G02*
X118061740Y-105452333I952500J0D01*
G01*
X118061740Y-107992333D02*
G75*
G02*
X116156740Y-107992333I-952500J0D01*
G01*
X116156740Y-107992333D02*
G75*
G02*
X118061740Y-107992333I952500J0D01*
G01*
X118061740Y-114032453D02*
G75*
G02*
X116156740Y-114032453I-952500J0D01*
G01*
X116156740Y-114032453D02*
G75*
G02*
X118061740Y-114032453I952500J0D01*
G01*
X118061740Y-115612333D02*
G75*
G02*
X116156740Y-115612333I-952500J0D01*
G01*
X116156740Y-115612333D02*
G75*
G02*
X118061740Y-115612333I952500J0D01*
G01*
D12*
%TO.C,J6*%
X158894000Y-42816000D02*
X160274000Y-42816000D01*
X158894000Y-44196000D02*
X158894000Y-42816000D01*
X158894000Y-45466000D02*
X158894000Y-93836000D01*
X158894000Y-45466000D02*
X161654000Y-45466000D01*
X158894000Y-93836000D02*
X161654000Y-93836000D01*
X161654000Y-45466000D02*
X161654000Y-93836000D01*
%TO.C,C5*%
X130956267Y-39622000D02*
X130663733Y-39622000D01*
X130956267Y-40642000D02*
X130663733Y-40642000D01*
%TO.C,R3*%
X200891000Y-120715000D02*
X200891000Y-122675000D01*
X200891000Y-133875000D02*
X200891000Y-131915000D01*
X202611000Y-122675000D02*
X199171000Y-122675000D01*
X199171000Y-131915000D01*
X202611000Y-131915000D01*
X202611000Y-122675000D01*
%TO.C,J4*%
X184416400Y-62052200D02*
X184416400Y-54322200D01*
X187176400Y-54322200D02*
X184416400Y-54322200D01*
X187176400Y-62052200D02*
X184416400Y-62052200D01*
X187176400Y-62052200D02*
X187176400Y-54322200D01*
X187176400Y-63322200D02*
X187176400Y-64702200D01*
X187176400Y-64702200D02*
X185796400Y-64702200D01*
%TO.C,J2*%
X163974000Y-48116000D02*
X163974000Y-46736000D01*
X165354000Y-48116000D02*
X163974000Y-48116000D01*
X166624000Y-45356000D02*
X214994000Y-45356000D01*
X166624000Y-48116000D02*
X166624000Y-45356000D01*
X166624000Y-48116000D02*
X214994000Y-48116000D01*
X214994000Y-48116000D02*
X214994000Y-45356000D01*
%TO.C,U1*%
X170802000Y-60850000D02*
X172182000Y-60850000D01*
X170802000Y-62230000D02*
X170802000Y-60850000D01*
X170802000Y-63500000D02*
X170802000Y-78850000D01*
X170802000Y-63500000D02*
X173562000Y-63500000D01*
X170802000Y-78850000D02*
X173562000Y-78850000D01*
X173562000Y-63500000D02*
X173562000Y-78850000D01*
%TO.C,R1*%
X181634000Y-50825400D02*
X183594000Y-50825400D01*
X194794000Y-50825400D02*
X192834000Y-50825400D01*
X183594000Y-49105400D02*
X192834000Y-49105400D01*
X192834000Y-52545400D01*
X183594000Y-52545400D01*
X183594000Y-49105400D01*
%TO.C,JP4*%
X206264000Y-48892000D02*
X208264000Y-48892000D01*
X206264000Y-51692000D02*
X206264000Y-48892000D01*
X208264000Y-48892000D02*
X208264000Y-51692000D01*
X208264000Y-51692000D02*
X206264000Y-51692000D01*
D11*
%TO.C,U7*%
X95544640Y-120142000D02*
X95544640Y-145542000D01*
X120944640Y-120142000D02*
X95544640Y-120142000D01*
X120944640Y-120142000D02*
X120944640Y-145542000D01*
X120944640Y-145542000D02*
X95544640Y-145542000D01*
X118069240Y-140107000D02*
X116164240Y-140107000D01*
X116164240Y-138202000D01*
X118069240Y-138202000D01*
X118069240Y-140107000D01*
X118079240Y-132517000D02*
X116174240Y-132517000D01*
X116174240Y-130612000D01*
X118079240Y-130612000D01*
X118079240Y-132517000D01*
X118061740Y-134112000D02*
G75*
G02*
X116156740Y-134112000I-952500J0D01*
G01*
X116156740Y-134112000D02*
G75*
G02*
X118061740Y-134112000I952500J0D01*
G01*
X118061740Y-136652000D02*
G75*
G02*
X116156740Y-136652000I-952500J0D01*
G01*
X116156740Y-136652000D02*
G75*
G02*
X118061740Y-136652000I952500J0D01*
G01*
X118061740Y-142692120D02*
G75*
G02*
X116156740Y-142692120I-952500J0D01*
G01*
X116156740Y-142692120D02*
G75*
G02*
X118061740Y-142692120I952500J0D01*
G01*
X118061740Y-144272000D02*
G75*
G02*
X116156740Y-144272000I-952500J0D01*
G01*
X116156740Y-144272000D02*
G75*
G02*
X118061740Y-144272000I952500J0D01*
G01*
D12*
%TO.C,M6*%
X158172640Y-146414000D02*
X158172640Y-145034000D01*
X159552640Y-146414000D02*
X158172640Y-146414000D01*
X160822640Y-143654000D02*
X173632640Y-143654000D01*
X160822640Y-146414000D02*
X160822640Y-143654000D01*
X160822640Y-146414000D02*
X173632640Y-146414000D01*
X173632640Y-146414000D02*
X173632640Y-143654000D01*
D11*
%TO.C,U9*%
X95544640Y-62822667D02*
X95544640Y-88222667D01*
X120944640Y-62822667D02*
X95544640Y-62822667D01*
X120944640Y-62822667D02*
X120944640Y-88222667D01*
X120944640Y-88222667D02*
X95544640Y-88222667D01*
X118069240Y-82787667D02*
X116164240Y-82787667D01*
X116164240Y-80882667D01*
X118069240Y-80882667D01*
X118069240Y-82787667D01*
X118079240Y-75197667D02*
X116174240Y-75197667D01*
X116174240Y-73292667D01*
X118079240Y-73292667D01*
X118079240Y-75197667D01*
X118061740Y-76792667D02*
G75*
G02*
X116156740Y-76792667I-952500J0D01*
G01*
X116156740Y-76792667D02*
G75*
G02*
X118061740Y-76792667I952500J0D01*
G01*
X118061740Y-79332667D02*
G75*
G02*
X116156740Y-79332667I-952500J0D01*
G01*
X116156740Y-79332667D02*
G75*
G02*
X118061740Y-79332667I952500J0D01*
G01*
X118061740Y-85372787D02*
G75*
G02*
X116156740Y-85372787I-952500J0D01*
G01*
X116156740Y-85372787D02*
G75*
G02*
X118061740Y-85372787I952500J0D01*
G01*
X118061740Y-86952667D02*
G75*
G02*
X116156740Y-86952667I-952500J0D01*
G01*
X116156740Y-86952667D02*
G75*
G02*
X118061740Y-86952667I952500J0D01*
G01*
%TO.C,U14*%
X122976640Y-116560600D02*
X122976640Y-141960600D01*
X122976640Y-116560600D02*
X148376640Y-116560600D01*
X122976640Y-141960600D02*
X148376640Y-141960600D01*
X148376640Y-116560600D02*
X148376640Y-141960600D01*
X135351640Y-119426000D02*
X133446640Y-119426000D01*
X133446640Y-121331000D01*
X135351640Y-121331000D01*
X135351640Y-119426000D01*
X142941640Y-119436000D02*
X141036640Y-119436000D01*
X141036640Y-121341000D01*
X142941640Y-121341000D01*
X142941640Y-119436000D01*
X137899140Y-120396000D02*
G75*
G02*
X135994140Y-120396000I-952500J0D01*
G01*
X135994140Y-120396000D02*
G75*
G02*
X137899140Y-120396000I952500J0D01*
G01*
X140439140Y-120396000D02*
G75*
G02*
X138534140Y-120396000I-952500J0D01*
G01*
X138534140Y-120396000D02*
G75*
G02*
X140439140Y-120396000I952500J0D01*
G01*
X146479260Y-120396000D02*
G75*
G02*
X144574260Y-120396000I-952500J0D01*
G01*
X144574260Y-120396000D02*
G75*
G02*
X146479260Y-120396000I952500J0D01*
G01*
X148059140Y-120396000D02*
G75*
G02*
X146154140Y-120396000I-952500J0D01*
G01*
X146154140Y-120396000D02*
G75*
G02*
X148059140Y-120396000I952500J0D01*
G01*
D12*
%TO.C,M5*%
X216856800Y-92964000D02*
X216856800Y-75074000D01*
X219616800Y-75074000D02*
X216856800Y-75074000D01*
X219616800Y-92964000D02*
X216856800Y-92964000D01*
X219616800Y-92964000D02*
X219616800Y-75074000D01*
X219616800Y-94234000D02*
X219616800Y-95614000D01*
X219616800Y-95614000D02*
X218236800Y-95614000D01*
%TO.C,S4*%
X216806000Y-53992000D02*
X218186000Y-53992000D01*
X216806000Y-55372000D02*
X216806000Y-53992000D01*
X216806000Y-56642000D02*
X216806000Y-61832000D01*
X216806000Y-56642000D02*
X219566000Y-56642000D01*
X216806000Y-61832000D02*
X219566000Y-61832000D01*
X219566000Y-56642000D02*
X219566000Y-61832000D01*
D11*
%TO.C,U3*%
X184150000Y-139954000D02*
X184150000Y-114554000D01*
X209550000Y-114554000D02*
X184150000Y-114554000D01*
X209550000Y-139954000D02*
X184150000Y-139954000D01*
X209550000Y-139954000D02*
X209550000Y-114554000D01*
%TO.C,A2*%
X168148000Y-95681800D02*
X193548000Y-95681800D01*
X193548000Y-80441800D01*
X168148000Y-80441800D01*
X168148000Y-95681800D01*
D12*
%TO.C,R2*%
X168118000Y-61238000D02*
X168118000Y-63198000D01*
X168118000Y-74398000D02*
X168118000Y-72438000D01*
X166398000Y-72438000D02*
X169838000Y-72438000D01*
X169838000Y-63198000D01*
X166398000Y-63198000D01*
X166398000Y-72438000D01*
%TO.C,JP1*%
X211344000Y-48892000D02*
X213344000Y-48892000D01*
X211344000Y-51692000D02*
X211344000Y-48892000D01*
X213344000Y-48892000D02*
X213344000Y-51692000D01*
X213344000Y-51692000D02*
X211344000Y-51692000D01*
%TO.C,M7*%
X128962640Y-146160000D02*
X128962640Y-144780000D01*
X130342640Y-146160000D02*
X128962640Y-146160000D01*
X131612640Y-143400000D02*
X144422640Y-143400000D01*
X131612640Y-146160000D02*
X131612640Y-143400000D01*
X131612640Y-146160000D02*
X144422640Y-146160000D01*
X144422640Y-146160000D02*
X144422640Y-143400000D01*
%TO.C,J5*%
X130954000Y-42816000D02*
X132334000Y-42816000D01*
X130954000Y-44196000D02*
X130954000Y-42816000D01*
X130954000Y-45466000D02*
X130954000Y-93836000D01*
X130954000Y-45466000D02*
X133714000Y-45466000D01*
X130954000Y-93836000D02*
X133714000Y-93836000D01*
X133714000Y-45466000D02*
X133714000Y-93836000D01*
%TO.C,S2*%
X200804000Y-143400000D02*
X200804000Y-146160000D01*
X205994000Y-143400000D02*
X200804000Y-143400000D01*
X205994000Y-143400000D02*
X205994000Y-146160000D01*
X205994000Y-146160000D02*
X200804000Y-146160000D01*
X207264000Y-143400000D02*
X208644000Y-143400000D01*
X208644000Y-143400000D02*
X208644000Y-144780000D01*
%TO.C,C6*%
X169310267Y-40892000D02*
X169017733Y-40892000D01*
X169310267Y-41912000D02*
X169017733Y-41912000D01*
%TO.C,M4*%
X88068640Y-56642000D02*
X88068640Y-43832000D01*
X90828640Y-43832000D02*
X88068640Y-43832000D01*
X90828640Y-56642000D02*
X88068640Y-56642000D01*
X90828640Y-56642000D02*
X90828640Y-43832000D01*
X90828640Y-57912000D02*
X90828640Y-59292000D01*
X90828640Y-59292000D02*
X89448640Y-59292000D01*
%TO.C,C8*%
X165562233Y-40892000D02*
X165854767Y-40892000D01*
X165562233Y-41912000D02*
X165854767Y-41912000D01*
%TO.C,R4*%
X181326000Y-61238000D02*
X181326000Y-63198000D01*
X181326000Y-74398000D02*
X181326000Y-72438000D01*
X183046000Y-63198000D02*
X179606000Y-63198000D01*
X179606000Y-72438000D01*
X183046000Y-72438000D01*
X183046000Y-63198000D01*
%TD*%
M02*
