M48
; DRILL file {KiCad 9.0.7} date 2026-02-16T00:58:23-0500
; FORMAT={-:-/ absolute / metric / decimal}
; #@! TF.CreationDate,2026-02-16T00:58:23-05:00
; #@! TF.GenerationSoftware,Kicad,Pcbnew,9.0.7
; #@! TF.FileFunction,Plated,1,4,PTH
FMAT,2
METRIC
; #@! TA.AperFunction,Plated,PTH,ViaDrill
T1C0.300
; #@! TA.AperFunction,Plated,PTH,ComponentDrill
T2C0.800
; #@! TA.AperFunction,Plated,PTH,ComponentDrill
T3C1.000
; #@! TA.AperFunction,Plated,PTH,ComponentDrill
T4C1.020
; #@! TA.AperFunction,Plated,PTH,ComponentDrill
T5C1.100
; #@! TA.AperFunction,Plated,PTH,ComponentDrill
T6C1.300
; #@! TA.AperFunction,Plated,PTH,ComponentDrill
T7C1.520
; #@! TA.AperFunction,Plated,PTH,ComponentDrill
T8C3.200
%
G90
G05
T1
X121.031Y-119.634
X139.954Y-107.596
X139.954Y-109.32
X141.097Y-96.393
X142.037Y-112.319
X145.542Y-107.696
X152.019Y-96.393
X152.019Y-97.663
X153.67Y-108.865
X161.798Y-41.402
X170.48Y-51.054
X170.48Y-52.324
X172.023Y-59.436
X178.248Y-50.431
X178.816Y-54.864
X184.084Y-56.53
X184.273Y-52.701
X185.42Y-52.578
X202.184Y-82.042
X203.962Y-93.218
X206.502Y-49.378
X208.026Y-49.378
X214.122Y-49.378
X215.646Y-49.378
T2
X168.118Y-60.198
X168.118Y-75.438
X180.594Y-50.825
X181.326Y-60.198
X181.326Y-75.438
X195.834Y-50.825
X200.891Y-119.675
X200.891Y-134.915
T3
X89.449Y-45.212
X89.449Y-47.752
X89.449Y-50.292
X89.449Y-52.832
X89.449Y-55.372
X89.449Y-57.912
X89.449Y-70.781
X89.449Y-73.321
X89.449Y-75.861
X89.449Y-78.401
X89.449Y-80.941
X89.449Y-83.481
X89.449Y-96.351
X89.449Y-98.891
X89.449Y-101.431
X89.449Y-103.971
X89.449Y-106.511
X89.449Y-109.051
X89.449Y-121.92
X89.449Y-124.46
X89.449Y-127.0
X89.449Y-129.54
X89.449Y-132.08
X89.449Y-134.62
X127.254Y-37.541
X129.794Y-37.541
X130.343Y-144.78
X132.334Y-37.541
X132.334Y-44.196
X132.334Y-46.736
X132.334Y-49.276
X132.334Y-51.816
X132.334Y-54.356
X132.334Y-56.896
X132.334Y-59.436
X132.334Y-61.976
X132.334Y-64.516
X132.334Y-67.056
X132.334Y-69.596
X132.334Y-72.136
X132.334Y-74.676
X132.334Y-77.216
X132.334Y-79.756
X132.334Y-82.296
X132.334Y-84.836
X132.334Y-87.376
X132.334Y-89.916
X132.334Y-92.456
X132.883Y-144.78
X135.423Y-144.78
X137.414Y-44.196
X137.414Y-46.736
X137.414Y-49.276
X137.414Y-51.816
X137.414Y-54.356
X137.414Y-56.896
X137.414Y-59.436
X137.414Y-61.976
X137.414Y-64.516
X137.414Y-67.056
X137.414Y-69.596
X137.414Y-72.136
X137.414Y-74.676
X137.414Y-77.216
X137.414Y-79.756
X137.414Y-82.296
X137.414Y-84.836
X137.414Y-87.376
X137.414Y-89.916
X137.414Y-92.456
X137.963Y-144.78
X140.503Y-144.78
X143.043Y-144.78
X155.194Y-44.196
X155.194Y-46.736
X155.194Y-49.276
X155.194Y-51.816
X155.194Y-54.356
X155.194Y-56.896
X155.194Y-59.436
X155.194Y-61.976
X155.194Y-64.516
X155.194Y-67.056
X155.194Y-69.596
X155.194Y-72.136
X155.194Y-74.676
X155.194Y-77.216
X155.194Y-79.756
X155.194Y-82.296
X155.194Y-84.836
X155.194Y-87.376
X155.194Y-89.916
X155.194Y-92.456
X159.553Y-145.034
X160.274Y-44.196
X160.274Y-46.736
X160.274Y-49.276
X160.274Y-51.816
X160.274Y-54.356
X160.274Y-56.896
X160.274Y-59.436
X160.274Y-61.976
X160.274Y-64.516
X160.274Y-67.056
X160.274Y-69.596
X160.274Y-72.136
X160.274Y-74.676
X160.274Y-77.216
X160.274Y-79.756
X160.274Y-82.296
X160.274Y-84.836
X160.274Y-87.376
X160.274Y-89.916
X160.274Y-92.456
X162.093Y-145.034
X164.633Y-145.034
X165.354Y-35.56
X165.354Y-38.1
X165.354Y-44.196
X165.354Y-46.736
X167.173Y-145.034
X167.894Y-35.56
X167.894Y-38.1
X167.894Y-44.196
X167.894Y-46.736
X169.418Y-94.412
X169.713Y-145.034
X170.434Y-35.56
X170.434Y-38.1
X170.434Y-44.196
X170.434Y-46.736
X171.958Y-94.412
X172.182Y-62.23
X172.182Y-64.77
X172.182Y-67.31
X172.182Y-69.85
X172.182Y-72.39
X172.182Y-74.93
X172.182Y-77.47
X172.253Y-145.034
X172.974Y-35.56
X172.974Y-38.1
X172.974Y-44.196
X172.974Y-46.736
X174.498Y-94.412
X175.514Y-35.56
X175.514Y-38.1
X175.514Y-44.196
X175.514Y-46.736
X177.038Y-94.412
X177.262Y-62.23
X177.262Y-64.77
X177.262Y-67.31
X177.262Y-69.85
X177.262Y-72.39
X177.262Y-74.93
X177.262Y-77.47
X178.054Y-35.56
X178.054Y-38.1
X178.054Y-44.196
X178.054Y-46.736
X179.578Y-94.412
X180.594Y-35.56
X180.594Y-38.1
X180.594Y-44.196
X180.594Y-46.736
X182.118Y-94.412
X183.134Y-35.56
X183.134Y-38.1
X183.134Y-44.196
X183.134Y-46.736
X184.658Y-94.412
X185.674Y-35.56
X185.674Y-38.1
X185.674Y-44.196
X185.674Y-46.736
X185.796Y-55.702
X185.796Y-58.242
X185.796Y-60.782
X185.796Y-63.322
X187.198Y-94.412
X188.214Y-35.56
X188.214Y-38.1
X188.214Y-44.196
X188.214Y-46.736
X189.484Y-144.78
X189.738Y-94.412
X190.754Y-35.56
X190.754Y-38.1
X190.754Y-44.196
X190.754Y-46.736
X192.024Y-144.78
X192.278Y-94.412
X193.294Y-35.56
X193.294Y-38.1
X193.294Y-44.196
X193.294Y-46.736
X194.564Y-144.78
X195.834Y-35.56
X195.834Y-38.1
X195.834Y-44.196
X195.834Y-46.736
X197.866Y-70.104
X197.866Y-72.644
X197.866Y-75.184
X197.866Y-77.724
X197.866Y-80.264
X197.866Y-82.804
X197.866Y-87.884
X197.866Y-90.424
X197.866Y-92.964
X197.866Y-95.504
X197.866Y-98.044
X197.866Y-100.584
X198.374Y-35.56
X198.374Y-38.1
X198.374Y-44.196
X198.374Y-46.736
X200.914Y-35.56
X200.914Y-38.1
X200.914Y-44.196
X200.914Y-46.736
X202.184Y-144.78
X203.454Y-35.56
X203.454Y-38.1
X203.454Y-44.196
X203.454Y-46.736
X204.724Y-144.78
X205.994Y-35.56
X205.994Y-38.1
X205.994Y-44.196
X205.994Y-46.736
X207.264Y-144.78
X208.534Y-35.56
X208.534Y-38.1
X208.534Y-44.196
X208.534Y-46.736
X211.074Y-35.56
X211.074Y-38.1
X211.074Y-44.196
X211.074Y-46.736
X213.106Y-70.104
X213.106Y-72.644
X213.106Y-75.184
X213.106Y-77.724
X213.106Y-80.264
X213.106Y-82.804
X213.106Y-87.884
X213.106Y-90.424
X213.106Y-92.964
X213.106Y-95.504
X213.106Y-98.044
X213.106Y-100.584
X213.614Y-35.56
X213.614Y-38.1
X213.614Y-44.196
X213.614Y-46.736
X218.135Y-66.04
X218.135Y-68.58
X218.135Y-71.12
X218.186Y-55.372
X218.186Y-57.912
X218.186Y-60.452
X218.237Y-76.454
X218.237Y-78.994
X218.237Y-81.534
X218.237Y-84.074
X218.237Y-86.614
X218.237Y-89.154
X218.237Y-91.694
X218.237Y-94.234
T4
X96.789Y-43.053
X96.789Y-45.593
X96.789Y-48.133
X96.789Y-50.673
X96.789Y-71.713
X96.789Y-74.253
X96.789Y-76.793
X96.789Y-79.333
X96.789Y-100.372
X96.789Y-102.912
X96.789Y-105.452
X96.789Y-107.992
X96.789Y-129.032
X96.789Y-131.572
X96.789Y-134.112
X96.789Y-136.652
X119.649Y-35.433
X119.649Y-37.973
X119.649Y-40.513
X119.649Y-43.053
X119.649Y-45.593
X119.649Y-48.133
X119.649Y-50.673
X119.649Y-53.213
X119.649Y-55.753
X119.649Y-58.293
X119.649Y-64.093
X119.649Y-66.633
X119.649Y-69.173
X119.649Y-71.713
X119.649Y-74.253
X119.649Y-76.793
X119.649Y-79.333
X119.649Y-81.873
X119.649Y-84.413
X119.649Y-86.953
X119.649Y-92.752
X119.649Y-95.292
X119.649Y-97.832
X119.649Y-100.372
X119.649Y-102.912
X119.649Y-105.452
X119.649Y-107.992
X119.649Y-110.532
X119.649Y-113.072
X119.649Y-115.612
X119.649Y-121.412
X119.649Y-123.952
X119.649Y-126.492
X119.649Y-129.032
X119.649Y-131.572
X119.649Y-134.112
X119.649Y-136.652
X119.649Y-139.192
X119.649Y-141.732
X119.649Y-144.272
X124.247Y-117.856
X126.787Y-117.856
X129.327Y-117.856
X131.867Y-117.856
X131.867Y-140.716
X134.407Y-117.856
X134.407Y-140.716
X136.947Y-117.856
X136.947Y-140.716
X139.487Y-117.856
X139.487Y-140.716
X142.027Y-117.856
X144.567Y-117.856
X147.107Y-117.856
X154.981Y-117.881
X157.521Y-117.881
X160.061Y-117.881
X162.601Y-117.881
X162.601Y-140.741
X165.141Y-117.881
X165.141Y-140.741
X167.681Y-117.881
X167.681Y-140.741
X170.221Y-117.881
X170.221Y-140.741
X172.761Y-117.881
X175.301Y-117.881
X177.841Y-117.881
X205.74Y-120.904
X205.74Y-123.444
X205.74Y-125.984
X205.74Y-128.524
X205.74Y-131.064
X205.74Y-133.604
X208.28Y-120.904
X208.28Y-123.444
X208.28Y-125.984
X208.28Y-128.524
X208.28Y-131.064
X208.28Y-133.604
T5
X214.158Y-111.38
X214.158Y-117.88
X218.658Y-111.38
X218.658Y-117.88
T6
X216.408Y-125.252
X216.408Y-130.332
T7
X99.075Y-41.656
X99.075Y-45.156
X99.075Y-48.656
X99.075Y-52.156
X99.075Y-70.316
X99.075Y-73.816
X99.075Y-77.316
X99.075Y-80.816
X99.075Y-98.975
X99.075Y-102.475
X99.075Y-105.976
X99.075Y-109.476
X99.075Y-127.635
X99.075Y-131.135
X99.075Y-134.635
X99.075Y-138.135
X130.47Y-138.43
X133.97Y-138.43
X137.47Y-138.43
X140.97Y-138.43
X161.204Y-138.455
X164.704Y-138.455
X168.204Y-138.455
X171.704Y-138.455
T8
X88.9Y-38.1
X88.9Y-142.24
X218.44Y-142.24
M30
