%TF.GenerationSoftware,KiCad,Pcbnew,9.0.7*%
%TF.CreationDate,2026-02-16T00:15:14-05:00*%
%TF.ProjectId,ieee,69656565-2e6b-4696-9361-645f70636258,rev?*%
%TF.SameCoordinates,Original*%
%TF.FileFunction,Soldermask,Bot*%
%TF.FilePolarity,Negative*%
%FSLAX46Y46*%
G04 Gerber Fmt 4.6, Leading zero omitted, Abs format (unit mm)*
G04 Created by KiCad (PCBNEW 9.0.7) date 2026-02-16 00:15:14*
%MOMM*%
%LPD*%
G01*
G04 APERTURE LIST*
G04 Aperture macros list*
%AMRoundRect*
0 Rectangle with rounded corners*
0 $1 Rounding radius*
0 $2 $3 $4 $5 $6 $7 $8 $9 X,Y pos of 4 corners*
0 Add a 4 corners polygon primitive as box body*
4,1,4,$2,$3,$4,$5,$6,$7,$8,$9,$2,$3,0*
0 Add four circle primitives for the rounded corners*
1,1,$1+$1,$2,$3*
1,1,$1+$1,$4,$5*
1,1,$1+$1,$6,$7*
1,1,$1+$1,$8,$9*
0 Add four rect primitives between the rounded corners*
20,1,$1+$1,$2,$3,$4,$5,0*
20,1,$1+$1,$4,$5,$6,$7,0*
20,1,$1+$1,$6,$7,$8,$9,0*
20,1,$1+$1,$8,$9,$2,$3,0*%
%AMFreePoly0*
4,1,37,0.603843,0.796157,0.639018,0.796157,0.711114,0.766294,0.766294,0.711114,0.796157,0.639018,0.796157,0.603843,0.800000,0.600000,0.800000,-0.600000,0.796157,-0.603843,0.796157,-0.639018,0.766294,-0.711114,0.711114,-0.766294,0.639018,-0.796157,0.603843,-0.796157,0.600000,-0.800000,0.000000,-0.800000,0.000000,-0.796148,-0.078414,-0.796148,-0.232228,-0.765552,-0.377117,-0.705537,
-0.507515,-0.618408,-0.618408,-0.507515,-0.705537,-0.377117,-0.765552,-0.232228,-0.796148,-0.078414,-0.796148,0.078414,-0.765552,0.232228,-0.705537,0.377117,-0.618408,0.507515,-0.507515,0.618408,-0.377117,0.705537,-0.232228,0.765552,-0.078414,0.796148,0.000000,0.796148,0.000000,0.800000,0.600000,0.800000,0.603843,0.796157,0.603843,0.796157,$1*%
%AMFreePoly1*
4,1,37,0.000000,0.796148,0.078414,0.796148,0.232228,0.765552,0.377117,0.705537,0.507515,0.618408,0.618408,0.507515,0.705537,0.377117,0.765552,0.232228,0.796148,0.078414,0.796148,-0.078414,0.765552,-0.232228,0.705537,-0.377117,0.618408,-0.507515,0.507515,-0.618408,0.377117,-0.705537,0.232228,-0.765552,0.078414,-0.796148,0.000000,-0.796148,0.000000,-0.800000,-0.600000,-0.800000,
-0.603843,-0.796157,-0.639018,-0.796157,-0.711114,-0.766294,-0.766294,-0.711114,-0.796157,-0.639018,-0.796157,-0.603843,-0.800000,-0.600000,-0.800000,0.600000,-0.796157,0.603843,-0.796157,0.639018,-0.766294,0.711114,-0.711114,0.766294,-0.639018,0.796157,-0.603843,0.796157,-0.600000,0.800000,0.000000,0.800000,0.000000,0.796148,0.000000,0.796148,$1*%
G04 Aperture macros list end*
%ADD10C,6.400000*%
%ADD11C,2.200000*%
%ADD12C,1.850000*%
%ADD13RoundRect,0.200000X-0.600000X-0.600000X0.600000X-0.600000X0.600000X0.600000X-0.600000X0.600000X0*%
%ADD14C,1.600000*%
%ADD15FreePoly0,0.000000*%
%ADD16FreePoly1,0.000000*%
%ADD17C,1.700000*%
%ADD18R,1.700000X1.700000*%
%ADD19C,2.700000*%
%ADD20C,3.000000*%
%ADD21C,1.750000*%
%ADD22C,1.905000*%
%ADD23R,1.905000X1.905000*%
%ADD24C,2.180000*%
%ADD25C,2.540000*%
%ADD26R,2.540000X2.540000*%
%ADD27RoundRect,0.250000X1.000000X-1.000000X1.000000X1.000000X-1.000000X1.000000X-1.000000X-1.000000X0*%
%ADD28C,2.500000*%
%ADD29C,2.000000*%
G04 APERTURE END LIST*
D10*
%TO.C,H2*%
X88900000Y-38100000D03*
%TD*%
%TO.C,H3*%
X88900000Y-142240000D03*
%TD*%
D11*
%TO.C,A3*%
X143579000Y-44326000D03*
D12*
X143879000Y-47356000D03*
X148729000Y-47356000D03*
D11*
X149029000Y-44326000D03*
D13*
X137414000Y-44196000D03*
D14*
X137414000Y-46736000D03*
D15*
X137414000Y-49276000D03*
D14*
X137414000Y-51816000D03*
X137414000Y-54356000D03*
X137414000Y-56896000D03*
X137414000Y-59436000D03*
D15*
X137414000Y-61976000D03*
D14*
X137414000Y-64516000D03*
X137414000Y-67056000D03*
X137414000Y-69596000D03*
X137414000Y-72136000D03*
D15*
X137414000Y-74676000D03*
D14*
X137414000Y-77216000D03*
X137414000Y-79756000D03*
X137414000Y-82296000D03*
X137414000Y-84836000D03*
D15*
X137414000Y-87376000D03*
D14*
X137414000Y-89916000D03*
X137414000Y-92456000D03*
X155194000Y-92456000D03*
X155194000Y-89916000D03*
D16*
X155194000Y-87376000D03*
D14*
X155194000Y-84836000D03*
X155194000Y-82296000D03*
X155194000Y-79756000D03*
X155194000Y-77216000D03*
D16*
X155194000Y-74676000D03*
D14*
X155194000Y-72136000D03*
X155194000Y-69596000D03*
X155194000Y-67056000D03*
X155194000Y-64516000D03*
D16*
X155194000Y-61976000D03*
D14*
X155194000Y-59436000D03*
X155194000Y-56896000D03*
X155194000Y-54356000D03*
X155194000Y-51816000D03*
D16*
X155194000Y-49276000D03*
D14*
X155194000Y-46736000D03*
X155194000Y-44196000D03*
%TD*%
D17*
%TO.C,A1*%
X219724000Y4925000D03*
X219724000Y7465000D03*
X217184000Y4925000D03*
D18*
X217184000Y7465000D03*
D17*
X213614000Y-38100000D03*
X213614000Y-35560000D03*
X211074000Y-38100000D03*
X211074000Y-35560000D03*
X208534000Y-38100000D03*
X208534000Y-35560000D03*
X205994000Y-38100000D03*
X205994000Y-35560000D03*
X203454000Y-38100000D03*
X203454000Y-35560000D03*
X200914000Y-38100000D03*
X200914000Y-35560000D03*
X198374000Y-38100000D03*
X198374000Y-35560000D03*
X195834000Y-38100000D03*
X195834000Y-35560000D03*
X193294000Y-38100000D03*
X193294000Y-35560000D03*
X190754000Y-38100000D03*
X190754000Y-35560000D03*
X188214000Y-38100000D03*
X188214000Y-35560000D03*
X185674000Y-38100000D03*
X185674000Y-35560000D03*
X183134000Y-38100000D03*
X183134000Y-35560000D03*
X180594000Y-38100000D03*
X180594000Y-35560000D03*
X178054000Y-38100000D03*
X178054000Y-35560000D03*
X175514000Y-38100000D03*
X175514000Y-35560000D03*
X172974000Y-38100000D03*
X172974000Y-35560000D03*
X170434000Y-38100000D03*
X170434000Y-35560000D03*
X167894000Y-38100000D03*
X167894000Y-35560000D03*
X165354000Y-38100000D03*
D18*
X165354000Y-35560000D03*
D19*
X160384000Y12130000D03*
X160384000Y-36870000D03*
X218384000Y12130000D03*
D20*
X218384000Y-30870000D03*
D19*
X218384000Y-36870000D03*
%TD*%
D21*
%TO.C,A2*%
X192278000Y-94411800D03*
X189738000Y-94411800D03*
X187198000Y-94411800D03*
X184658000Y-94411800D03*
X182118000Y-94411800D03*
X179578000Y-94411800D03*
X177038000Y-94411800D03*
X174498000Y-94411800D03*
X171958000Y-94411800D03*
X169418000Y-94411800D03*
D20*
X191008000Y-82981800D03*
X170688000Y-82981800D03*
%TD*%
D22*
%TO.C,U3*%
X205740000Y-133604000D03*
X208280000Y-120904000D03*
X205740000Y-120904000D03*
D23*
X208280000Y-123444000D03*
X205740000Y-123444000D03*
X208280000Y-125984000D03*
X205740000Y-125984000D03*
D22*
X208280000Y-128524000D03*
X205740000Y-128524000D03*
X208280000Y-131064000D03*
X205740000Y-131064000D03*
X208280000Y-133604000D03*
D24*
X207391000Y-116713000D03*
X207391000Y-137795000D03*
X186309000Y-137795000D03*
%TD*%
D22*
%TO.C,U7*%
X96789240Y-136652000D03*
D25*
X99075240Y-138135360D03*
D23*
X96789240Y-134112000D03*
D26*
X99075240Y-134635240D03*
D22*
X96789240Y-131572000D03*
D25*
X99075240Y-131135120D03*
D22*
X96789240Y-129032000D03*
D25*
X99075240Y-127635000D03*
D22*
X119649240Y-121412000D03*
X119649240Y-123952000D03*
X119649240Y-126492000D03*
X119649240Y-129032000D03*
X119649240Y-131572000D03*
X119649240Y-134112000D03*
X119649240Y-136652000D03*
X119649240Y-139192000D03*
D23*
X119649240Y-141732000D03*
D22*
X119649240Y-144272000D03*
D24*
X98059240Y-122682000D03*
X98059240Y-143002000D03*
%TD*%
D22*
%TO.C,U8*%
X96789240Y-107992333D03*
D25*
X99075240Y-109475693D03*
D23*
X96789240Y-105452333D03*
D26*
X99075240Y-105975573D03*
D22*
X96789240Y-102912333D03*
D25*
X99075240Y-102475453D03*
D22*
X96789240Y-100372333D03*
D25*
X99075240Y-98975333D03*
D22*
X119649240Y-92752333D03*
X119649240Y-95292333D03*
X119649240Y-97832333D03*
X119649240Y-100372333D03*
X119649240Y-102912333D03*
X119649240Y-105452333D03*
X119649240Y-107992333D03*
X119649240Y-110532333D03*
D23*
X119649240Y-113072333D03*
D22*
X119649240Y-115612333D03*
D24*
X98059240Y-94022333D03*
X98059240Y-114342333D03*
%TD*%
D22*
%TO.C,U9*%
X96789240Y-79332667D03*
D25*
X99075240Y-80816027D03*
D23*
X96789240Y-76792667D03*
D26*
X99075240Y-77315907D03*
D22*
X96789240Y-74252667D03*
D25*
X99075240Y-73815787D03*
D22*
X96789240Y-71712667D03*
D25*
X99075240Y-70315667D03*
D22*
X119649240Y-64092667D03*
X119649240Y-66632667D03*
X119649240Y-69172667D03*
X119649240Y-71712667D03*
X119649240Y-74252667D03*
X119649240Y-76792667D03*
X119649240Y-79332667D03*
X119649240Y-81872667D03*
D23*
X119649240Y-84412667D03*
D22*
X119649240Y-86952667D03*
D24*
X98059240Y-65362667D03*
X98059240Y-85682667D03*
%TD*%
D22*
%TO.C,U10*%
X96789240Y-50673000D03*
D25*
X99075240Y-52156360D03*
D23*
X96789240Y-48133000D03*
D26*
X99075240Y-48656240D03*
D22*
X96789240Y-45593000D03*
D25*
X99075240Y-45156120D03*
D22*
X96789240Y-43053000D03*
D25*
X99075240Y-41656000D03*
D22*
X119649240Y-35433000D03*
X119649240Y-37973000D03*
X119649240Y-40513000D03*
X119649240Y-43053000D03*
X119649240Y-45593000D03*
X119649240Y-48133000D03*
X119649240Y-50673000D03*
X119649240Y-53213000D03*
D23*
X119649240Y-55753000D03*
D22*
X119649240Y-58293000D03*
D24*
X98059240Y-36703000D03*
X98059240Y-57023000D03*
%TD*%
D22*
%TO.C,U13*%
X170220640Y-140741400D03*
D25*
X171704000Y-138455400D03*
D23*
X167680640Y-140741400D03*
D26*
X168203880Y-138455400D03*
D22*
X165140640Y-140741400D03*
D25*
X164703760Y-138455400D03*
D22*
X162600640Y-140741400D03*
D25*
X161203640Y-138455400D03*
D22*
X154980640Y-117881400D03*
X157520640Y-117881400D03*
X160060640Y-117881400D03*
X162600640Y-117881400D03*
X165140640Y-117881400D03*
X167680640Y-117881400D03*
X170220640Y-117881400D03*
X172760640Y-117881400D03*
D23*
X175300640Y-117881400D03*
D22*
X177840640Y-117881400D03*
D24*
X156250640Y-139471400D03*
X176570640Y-139471400D03*
%TD*%
D22*
%TO.C,U14*%
X139486640Y-140716000D03*
D25*
X140970000Y-138430000D03*
D23*
X136946640Y-140716000D03*
D26*
X137469880Y-138430000D03*
D22*
X134406640Y-140716000D03*
D25*
X133969760Y-138430000D03*
D22*
X131866640Y-140716000D03*
D25*
X130469640Y-138430000D03*
D22*
X124246640Y-117856000D03*
X126786640Y-117856000D03*
X129326640Y-117856000D03*
X131866640Y-117856000D03*
X134406640Y-117856000D03*
X136946640Y-117856000D03*
X139486640Y-117856000D03*
X142026640Y-117856000D03*
D23*
X144566640Y-117856000D03*
D22*
X147106640Y-117856000D03*
D24*
X125516640Y-139446000D03*
X145836640Y-139446000D03*
%TD*%
D18*
%TO.C,U5*%
X132334000Y-37541200D03*
D17*
X129794000Y-37541200D03*
X127254000Y-37541200D03*
%TD*%
D18*
%TO.C,M1*%
X89448640Y-134620000D03*
D17*
X89448640Y-132080000D03*
X89448640Y-129540000D03*
X89448640Y-127000000D03*
X89448640Y-124460000D03*
X89448640Y-121920000D03*
%TD*%
D18*
%TO.C,U4*%
X177262000Y-62230000D03*
D17*
X177262000Y-64770000D03*
X177262000Y-67310000D03*
X177262000Y-69850000D03*
X177262000Y-72390000D03*
X177262000Y-74930000D03*
X177262000Y-77470000D03*
%TD*%
D18*
%TO.C,S1*%
X194564000Y-144780000D03*
D17*
X192024000Y-144780000D03*
X189484000Y-144780000D03*
%TD*%
D27*
%TO.C,J1*%
X216408000Y-130332400D03*
D28*
X216408000Y-125252400D03*
%TD*%
D18*
%TO.C,M3*%
X89448640Y-83481333D03*
D17*
X89448640Y-80941333D03*
X89448640Y-78401333D03*
X89448640Y-75861333D03*
X89448640Y-73321333D03*
X89448640Y-70781333D03*
%TD*%
D18*
%TO.C,J3*%
X165354000Y-44196000D03*
D17*
X167894000Y-44196000D03*
X170434000Y-44196000D03*
X172974000Y-44196000D03*
X175514000Y-44196000D03*
X178054000Y-44196000D03*
X180594000Y-44196000D03*
X183134000Y-44196000D03*
X185674000Y-44196000D03*
X188214000Y-44196000D03*
X190754000Y-44196000D03*
X193294000Y-44196000D03*
X195834000Y-44196000D03*
X198374000Y-44196000D03*
X200914000Y-44196000D03*
X203454000Y-44196000D03*
X205994000Y-44196000D03*
X208534000Y-44196000D03*
X211074000Y-44196000D03*
X213614000Y-44196000D03*
%TD*%
D18*
%TO.C,S3*%
X218135200Y-66040000D03*
D17*
X218135200Y-68580000D03*
X218135200Y-71120000D03*
%TD*%
D18*
%TO.C,M2*%
X89448640Y-109050667D03*
D17*
X89448640Y-106510667D03*
X89448640Y-103970667D03*
X89448640Y-101430667D03*
X89448640Y-98890667D03*
X89448640Y-96350667D03*
%TD*%
D10*
%TO.C,H1*%
X218440000Y-142240000D03*
%TD*%
D18*
%TO.C,U12*%
X213106000Y-82804000D03*
D17*
X213106000Y-80264000D03*
X213106000Y-77724000D03*
X213106000Y-75184000D03*
X213106000Y-72644000D03*
X213106000Y-70104000D03*
X197866000Y-70104000D03*
X197866000Y-72644000D03*
X197866000Y-75184000D03*
X197866000Y-77724000D03*
X197866000Y-80264000D03*
X197866000Y-82804000D03*
%TD*%
D29*
%TO.C,SW1*%
X214158000Y-117880200D03*
X214158000Y-111380200D03*
X218658000Y-117880200D03*
X218658000Y-111380200D03*
%TD*%
D18*
%TO.C,U11*%
X213106000Y-100584000D03*
D17*
X213106000Y-98044000D03*
X213106000Y-95504000D03*
X213106000Y-92964000D03*
X213106000Y-90424000D03*
X213106000Y-87884000D03*
X197866000Y-87884000D03*
X197866000Y-90424000D03*
X197866000Y-92964000D03*
X197866000Y-95504000D03*
X197866000Y-98044000D03*
X197866000Y-100584000D03*
%TD*%
D18*
%TO.C,J6*%
X160274000Y-44196000D03*
D17*
X160274000Y-46736000D03*
X160274000Y-49276000D03*
X160274000Y-51816000D03*
X160274000Y-54356000D03*
X160274000Y-56896000D03*
X160274000Y-59436000D03*
X160274000Y-61976000D03*
X160274000Y-64516000D03*
X160274000Y-67056000D03*
X160274000Y-69596000D03*
X160274000Y-72136000D03*
X160274000Y-74676000D03*
X160274000Y-77216000D03*
X160274000Y-79756000D03*
X160274000Y-82296000D03*
X160274000Y-84836000D03*
X160274000Y-87376000D03*
X160274000Y-89916000D03*
X160274000Y-92456000D03*
%TD*%
D14*
%TO.C,R3*%
X200891000Y-119675000D03*
X200891000Y-134915000D03*
%TD*%
D18*
%TO.C,J4*%
X185796400Y-63322200D03*
D17*
X185796400Y-60782200D03*
X185796400Y-58242200D03*
X185796400Y-55702200D03*
%TD*%
D18*
%TO.C,J2*%
X165354000Y-46736000D03*
D17*
X167894000Y-46736000D03*
X170434000Y-46736000D03*
X172974000Y-46736000D03*
X175514000Y-46736000D03*
X178054000Y-46736000D03*
X180594000Y-46736000D03*
X183134000Y-46736000D03*
X185674000Y-46736000D03*
X188214000Y-46736000D03*
X190754000Y-46736000D03*
X193294000Y-46736000D03*
X195834000Y-46736000D03*
X198374000Y-46736000D03*
X200914000Y-46736000D03*
X203454000Y-46736000D03*
X205994000Y-46736000D03*
X208534000Y-46736000D03*
X211074000Y-46736000D03*
X213614000Y-46736000D03*
%TD*%
D18*
%TO.C,U1*%
X172182000Y-62230000D03*
D17*
X172182000Y-64770000D03*
X172182000Y-67310000D03*
X172182000Y-69850000D03*
X172182000Y-72390000D03*
X172182000Y-74930000D03*
X172182000Y-77470000D03*
%TD*%
D14*
%TO.C,R1*%
X180594000Y-50825400D03*
X195834000Y-50825400D03*
%TD*%
D18*
%TO.C,M6*%
X159552640Y-145034000D03*
D17*
X162092640Y-145034000D03*
X164632640Y-145034000D03*
X167172640Y-145034000D03*
X169712640Y-145034000D03*
X172252640Y-145034000D03*
%TD*%
D18*
%TO.C,M5*%
X218236800Y-94234000D03*
D17*
X218236800Y-91694000D03*
X218236800Y-89154000D03*
X218236800Y-86614000D03*
X218236800Y-84074000D03*
X218236800Y-81534000D03*
X218236800Y-78994000D03*
X218236800Y-76454000D03*
%TD*%
D18*
%TO.C,S4*%
X218186000Y-55372000D03*
D17*
X218186000Y-57912000D03*
X218186000Y-60452000D03*
%TD*%
D14*
%TO.C,R2*%
X168118000Y-75438000D03*
X168118000Y-60198000D03*
%TD*%
D18*
%TO.C,M7*%
X130342640Y-144780000D03*
D17*
X132882640Y-144780000D03*
X135422640Y-144780000D03*
X137962640Y-144780000D03*
X140502640Y-144780000D03*
X143042640Y-144780000D03*
%TD*%
D18*
%TO.C,J5*%
X132334000Y-44196000D03*
D17*
X132334000Y-46736000D03*
X132334000Y-49276000D03*
X132334000Y-51816000D03*
X132334000Y-54356000D03*
X132334000Y-56896000D03*
X132334000Y-59436000D03*
X132334000Y-61976000D03*
X132334000Y-64516000D03*
X132334000Y-67056000D03*
X132334000Y-69596000D03*
X132334000Y-72136000D03*
X132334000Y-74676000D03*
X132334000Y-77216000D03*
X132334000Y-79756000D03*
X132334000Y-82296000D03*
X132334000Y-84836000D03*
X132334000Y-87376000D03*
X132334000Y-89916000D03*
X132334000Y-92456000D03*
%TD*%
D18*
%TO.C,S2*%
X207264000Y-144780000D03*
D17*
X204724000Y-144780000D03*
X202184000Y-144780000D03*
%TD*%
D18*
%TO.C,M4*%
X89448640Y-57912000D03*
D17*
X89448640Y-55372000D03*
X89448640Y-52832000D03*
X89448640Y-50292000D03*
X89448640Y-47752000D03*
X89448640Y-45212000D03*
%TD*%
D14*
%TO.C,R4*%
X181326000Y-60198000D03*
X181326000Y-75438000D03*
%TD*%
M02*
