%TF.GenerationSoftware,KiCad,Pcbnew,9.0.7*%
%TF.CreationDate,2026-02-16T00:15:14-05:00*%
%TF.ProjectId,ieee,69656565-2e6b-4696-9361-645f70636258,rev?*%
%TF.SameCoordinates,Original*%
%TF.FileFunction,Paste,Top*%
%TF.FilePolarity,Positive*%
%FSLAX46Y46*%
G04 Gerber Fmt 4.6, Leading zero omitted, Abs format (unit mm)*
G04 Created by KiCad (PCBNEW 9.0.7) date 2026-02-16 00:15:14*
%MOMM*%
%LPD*%
G01*
G04 APERTURE LIST*
G04 Aperture macros list*
%AMRoundRect*
0 Rectangle with rounded corners*
0 $1 Rounding radius*
0 $2 $3 $4 $5 $6 $7 $8 $9 X,Y pos of 4 corners*
0 Add a 4 corners polygon primitive as box body*
4,1,4,$2,$3,$4,$5,$6,$7,$8,$9,$2,$3,0*
0 Add four circle primitives for the rounded corners*
1,1,$1+$1,$2,$3*
1,1,$1+$1,$4,$5*
1,1,$1+$1,$6,$7*
1,1,$1+$1,$8,$9*
0 Add four rect primitives between the rounded corners*
20,1,$1+$1,$2,$3,$4,$5,0*
20,1,$1+$1,$4,$5,$6,$7,0*
20,1,$1+$1,$6,$7,$8,$9,0*
20,1,$1+$1,$8,$9,$2,$3,0*%
G04 Aperture macros list end*
%ADD10RoundRect,0.237500X-0.300000X-0.237500X0.300000X-0.237500X0.300000X0.237500X-0.300000X0.237500X0*%
%ADD11RoundRect,0.237500X0.300000X0.237500X-0.300000X0.237500X-0.300000X-0.237500X0.300000X-0.237500X0*%
%ADD12RoundRect,0.237500X0.237500X-0.300000X0.237500X0.300000X-0.237500X0.300000X-0.237500X-0.300000X0*%
%ADD13RoundRect,0.237500X-0.237500X0.300000X-0.237500X-0.300000X0.237500X-0.300000X0.237500X0.300000X0*%
%ADD14R,2.159000X0.558800*%
%ADD15RoundRect,0.150000X-0.825000X-0.150000X0.825000X-0.150000X0.825000X0.150000X-0.825000X0.150000X0*%
G04 APERTURE END LIST*
D10*
%TO.C,C8*%
X164846000Y-41402000D03*
X166571000Y-41402000D03*
%TD*%
D11*
%TO.C,C7*%
X177546000Y-49530000D03*
X175821000Y-49530000D03*
%TD*%
%TO.C,C6*%
X170026500Y-41402000D03*
X168301500Y-41402000D03*
%TD*%
%TO.C,C5*%
X131672500Y-40132000D03*
X129947500Y-40132000D03*
%TD*%
D12*
%TO.C,C4*%
X162814000Y-48868500D03*
X162814000Y-47143500D03*
%TD*%
D13*
%TO.C,C3*%
X152146000Y-108865500D03*
X152146000Y-110590500D03*
%TD*%
D11*
%TO.C,C2*%
X145489000Y-112268000D03*
X143764000Y-112268000D03*
%TD*%
D13*
%TO.C,C1*%
X140970000Y-107595500D03*
X140970000Y-109320500D03*
%TD*%
D14*
%TO.C,U6*%
X149936200Y-110363000D03*
X149936200Y-109093000D03*
X149936200Y-107823000D03*
X149936200Y-106553000D03*
X149936200Y-105283000D03*
X149936200Y-104013000D03*
X149936200Y-102743000D03*
X149936200Y-101473000D03*
X149936200Y-100203000D03*
X149936200Y-98933000D03*
X149936200Y-97663000D03*
X149936200Y-96393000D03*
X143179800Y-96393000D03*
X143179800Y-97663000D03*
X143179800Y-98933000D03*
X143179800Y-100203000D03*
X143179800Y-101473000D03*
X143179800Y-102743000D03*
X143179800Y-104013000D03*
X143179800Y-105283000D03*
X143179800Y-106553000D03*
X143179800Y-107823000D03*
X143179800Y-109093000D03*
X143179800Y-110363000D03*
%TD*%
D15*
%TO.C,U2*%
X172023000Y-51054000D03*
X172023000Y-52324000D03*
X172023000Y-53594000D03*
X172023000Y-54864000D03*
X172023000Y-56134000D03*
X172023000Y-57404000D03*
X172023000Y-58674000D03*
X176973000Y-58674000D03*
X176973000Y-57404000D03*
X176973000Y-56134000D03*
X176973000Y-54864000D03*
X176973000Y-53594000D03*
X176973000Y-52324000D03*
X176973000Y-51054000D03*
%TD*%
M02*
